<?xml version="1.0" encoding="UTF-8" standalone="no"?>
<!DOCTYPE svg PUBLIC "-//W3C//DTD SVG 1.1//EN"
 "http://www.w3.org/Graphics/SVG/1.1/DTD/svg11.dtd">
<!-- Generated by graphviz version 2.43.0 (0)
 -->
<!-- Title: %3 Pages: 1 -->
<svg width="476pt" height="238pt"
 viewBox="0.00 0.00 475.50 237.74" xmlns="http://www.w3.org/2000/svg" xmlns:xlink="http://www.w3.org/1999/xlink">
<g id="graph0" class="graph" transform="scale(1 1) rotate(0) translate(36 201.74)">
<title>%3</title>
<polygon fill="dimgray" stroke="transparent" points="-36,36 -36,-201.74 439.5,-201.74 439.5,36 -36,36"/>
<text text-anchor="middle" x="201.75" y="-150.54" font-family="Helvetica,sans-Serif" font-size="14.00">Sweep&#39;s Plan &amp; Progress</text>
<!-- start -->
<g id="node1" class="node">
<title>start</title>
</g>
<!-- 961a309a&#45;400e&#45;403d&#45;8f85&#45;965bbd97bf46 -->
<g id="node3" class="node">
<title>961a309a&#45;400e&#45;403d&#45;8f85&#45;965bbd97bf46</title>
<ellipse fill="yellow" stroke="black" cx="199" cy="-99.87" rx="146.24" ry="26.74"/>
<text text-anchor="middle" x="199" y="-103.67" font-family="Helvetica,sans-Serif" font-size="14.00">⋯ Modify</text>
<text text-anchor="middle" x="199" y="-88.67" font-family="Helvetica,sans-Serif" font-size="14.00">azure_oai_sdk_README.md</text>
</g>
<!-- start&#45;&gt;961a309a&#45;400e&#45;403d&#45;8f85&#45;965bbd97bf46 -->
<g id="edge2" class="edge">
<title>start&#45;&gt;961a309a&#45;400e&#45;403d&#45;8f85&#45;965bbd97bf46</title>
<path fill="none" stroke="black" d="M1.57,-99.87C4.72,-99.87 20.66,-99.87 42.22,-99.87"/>
<polygon fill="black" stroke="black" points="42.51,-103.37 52.51,-99.87 42.51,-96.37 42.51,-103.37"/>
<text text-anchor="middle" x="27.06" y="-106.67" font-family="Helvetica,sans-Serif" font-size="14.00">Start</text>
</g>
<!-- end -->
<g id="node2" class="node">
<title>end</title>
</g>
<!-- 961a309a&#45;400e&#45;403d&#45;8f85&#45;965bbd97bf46&#45;&gt;end -->
<g id="edge3" class="edge">
<title>961a309a&#45;400e&#45;403d&#45;8f85&#45;965bbd97bf46&#45;&gt;end</title>
<path fill="none" stroke="black" d="M345.63,-99.87C365.15,-99.87 381.95,-99.87 392.24,-99.87"/>
<polygon fill="black" stroke="black" points="392.36,-103.37 402.36,-99.87 392.36,-96.37 392.36,-103.37"/>
<text text-anchor="middle" x="373.94" y="-106.67" font-family="Helvetica,sans-Serif" font-size="14.00">Finish</text>
</g>
<!-- bdd2db6a&#45;e0fb&#45;4798&#45;8f41&#45;421abb479d7d -->
<g id="node4" class="node">
<title>bdd2db6a&#45;e0fb&#45;4798&#45;8f41&#45;421abb479d7d</title>
<polygon fill="white" stroke="black" points="398,-36 0,-36 0,0 398,0 398,-36"/>
<text text-anchor="middle" x="199" y="-14.3" font-family="Helvetica,sans-Serif" font-size="14.00">▶ Run GitHub Actions for `azure_oai_sdk_README.md`</text>
</g>
<!-- 961a309a&#45;400e&#45;403d&#45;8f85&#45;965bbd97bf46&#45;&gt;bdd2db6a&#45;e0fb&#45;4798&#45;8f41&#45;421abb479d7d -->
<g id="edge1" class="edge">
<title>961a309a&#45;400e&#45;403d&#45;8f85&#45;965bbd97bf46&#45;&gt;bdd2db6a&#45;e0fb&#45;4798&#45;8f41&#45;421abb479d7d</title>
<path fill="none" stroke="black" stroke-dasharray="5,2" d="M199,-72.72C199,-64.27 199,-54.89 199,-46.36"/>
<polygon fill="black" stroke="black" points="202.5,-46.15 199,-36.15 195.5,-46.15 202.5,-46.15"/>
</g>
</g>
</svg>
