<?xml version="1.0" encoding="UTF-8" standalone="no"?>
<!DOCTYPE svg PUBLIC "-//W3C//DTD SVG 1.1//EN"
 "http://www.w3.org/Graphics/SVG/1.1/DTD/svg11.dtd">
<!-- Generated by graphviz version 2.43.0 (0)
 -->
<!-- Title: %3 Pages: 1 -->
<svg width="971pt" height="165pt"
 viewBox="0.00 0.00 971.00 164.74" xmlns="http://www.w3.org/2000/svg" xmlns:xlink="http://www.w3.org/1999/xlink">
<g id="graph0" class="graph" transform="scale(1 1) rotate(0) translate(36 128.74)">
<title>%3</title>
<polygon fill="dimgray" stroke="transparent" points="-36,36 -36,-128.74 935,-128.74 935,36 -36,36"/>
<text text-anchor="middle" x="449.5" y="-77.54" font-family="Helvetica,sans-Serif" font-size="14.00">Sweep&#39;s Plan &amp; Progress</text>
<!-- start -->
<g id="node1" class="node">
<title>start</title>
</g>
<!-- e11e05e8&#45;d5eb&#45;4e4d&#45;a35b&#45;1e0746a02d6d -->
<g id="node3" class="node">
<title>e11e05e8&#45;d5eb&#45;4e4d&#45;a35b&#45;1e0746a02d6d</title>
<ellipse fill="#0ee832" stroke="black" cx="246.5" cy="-26.87" rx="194.41" ry="26.74"/>
<text text-anchor="middle" x="246.5" y="-30.67" font-family="Helvetica,sans-Serif" font-size="14.00">✓ Modify</text>
<text text-anchor="middle" x="246.5" y="-15.67" font-family="Helvetica,sans-Serif" font-size="14.00">NET&#45;Hack&#45;2023/Models/ChatModel.cs</text>
</g>
<!-- start&#45;&gt;e11e05e8&#45;d5eb&#45;4e4d&#45;a35b&#45;1e0746a02d6d -->
<g id="edge2" class="edge">
<title>start&#45;&gt;e11e05e8&#45;d5eb&#45;4e4d&#45;a35b&#45;1e0746a02d6d</title>
<path fill="none" stroke="black" d="M1.21,-26.87C4.62,-26.87 20.13,-26.87 41.84,-26.87"/>
<polygon fill="black" stroke="black" points="41.86,-30.37 51.86,-26.87 41.86,-23.37 41.86,-30.37"/>
<text text-anchor="middle" x="26.52" y="-33.67" font-family="Helvetica,sans-Serif" font-size="14.00">Start</text>
</g>
<!-- end -->
<g id="node2" class="node">
<title>end</title>
</g>
<!-- 1255c998&#45;f102&#45;4454&#45;8f36&#45;5705dc2b244a -->
<g id="node4" class="node">
<title>1255c998&#45;f102&#45;4454&#45;8f36&#45;5705dc2b244a</title>
<ellipse fill="yellow" stroke="black" cx="658.5" cy="-26.87" rx="181.95" ry="26.74"/>
<text text-anchor="middle" x="658.5" y="-30.67" font-family="Helvetica,sans-Serif" font-size="14.00">⋯ Modify</text>
<text text-anchor="middle" x="658.5" y="-15.67" font-family="Helvetica,sans-Serif" font-size="14.00">NET&#45;Hack&#45;2023/Pages/Chat.cshtml</text>
</g>
<!-- e11e05e8&#45;d5eb&#45;4e4d&#45;a35b&#45;1e0746a02d6d&#45;&gt;1255c998&#45;f102&#45;4454&#45;8f36&#45;5705dc2b244a -->
<g id="edge1" class="edge">
<title>e11e05e8&#45;d5eb&#45;4e4d&#45;a35b&#45;1e0746a02d6d&#45;&gt;1255c998&#45;f102&#45;4454&#45;8f36&#45;5705dc2b244a</title>
<path fill="none" stroke="black" d="M441.23,-26.87C449.58,-26.87 457.93,-26.87 466.27,-26.87"/>
<polygon fill="black" stroke="black" points="466.46,-30.37 476.46,-26.87 466.46,-23.37 466.46,-30.37"/>
</g>
<!-- 1255c998&#45;f102&#45;4454&#45;8f36&#45;5705dc2b244a&#45;&gt;end -->
<g id="edge3" class="edge">
<title>1255c998&#45;f102&#45;4454&#45;8f36&#45;5705dc2b244a&#45;&gt;end</title>
<path fill="none" stroke="black" d="M840.4,-26.87C860.55,-26.87 877.49,-26.87 887.78,-26.87"/>
<polygon fill="black" stroke="black" points="887.86,-30.37 897.86,-26.87 887.86,-23.37 887.86,-30.37"/>
<text text-anchor="middle" x="869.11" y="-33.67" font-family="Helvetica,sans-Serif" font-size="14.00">Finish</text>
</g>
</g>
</svg>
