<?xml version="1.0" encoding="UTF-8" standalone="no"?>
<!DOCTYPE svg PUBLIC "-//W3C//DTD SVG 1.1//EN"
 "http://www.w3.org/Graphics/SVG/1.1/DTD/svg11.dtd">
<!-- Generated by graphviz version 2.43.0 (0)
 -->
<!-- Title: %3 Pages: 1 -->
<svg width="680pt" height="238pt"
 viewBox="0.00 0.00 680.00 237.74" xmlns="http://www.w3.org/2000/svg" xmlns:xlink="http://www.w3.org/1999/xlink">
<g id="graph0" class="graph" transform="scale(1 1) rotate(0) translate(36 201.74)">
<title>%3</title>
<polygon fill="dimgray" stroke="transparent" points="-36,36 -36,-201.74 644,-201.74 644,36 -36,36"/>
<text text-anchor="middle" x="304" y="-150.54" font-family="Helvetica,sans-Serif" font-size="14.00">Sweep&#39;s Plan &amp; Progress</text>
<!-- start -->
<g id="node1" class="node">
<title>start</title>
</g>
<!-- 33de47a6&#45;b490&#45;45fc&#45;b9c8&#45;cf86c9db341a -->
<g id="node3" class="node">
<title>33de47a6&#45;b490&#45;45fc&#45;b9c8&#45;cf86c9db341a</title>
<ellipse fill="yellow" stroke="black" cx="212.5" cy="-99.87" rx="73.58" ry="26.74"/>
<text text-anchor="middle" x="212.5" y="-103.67" font-family="Helvetica,sans-Serif" font-size="14.00">⋯ Modify</text>
<text text-anchor="middle" x="212.5" y="-88.67" font-family="Helvetica,sans-Serif" font-size="14.00">README.md</text>
</g>
<!-- start&#45;&gt;33de47a6&#45;b490&#45;45fc&#45;b9c8&#45;cf86c9db341a -->
<g id="edge4" class="edge">
<title>start&#45;&gt;33de47a6&#45;b490&#45;45fc&#45;b9c8&#45;cf86c9db341a</title>
<path fill="none" stroke="black" d="M87.3,-99.87C91.14,-99.87 108.24,-99.87 128.62,-99.87"/>
<polygon fill="black" stroke="black" points="128.85,-103.37 138.85,-99.87 128.85,-96.37 128.85,-103.37"/>
<text text-anchor="middle" x="112.98" y="-106.67" font-family="Helvetica,sans-Serif" font-size="14.00">Start</text>
</g>
<!-- end -->
<g id="node2" class="node">
<title>end</title>
</g>
<!-- a940c2d9&#45;49a9&#45;4693&#45;81d8&#45;95ea5ef8f3a8 -->
<g id="node4" class="node">
<title>a940c2d9&#45;49a9&#45;4693&#45;81d8&#45;95ea5ef8f3a8</title>
<ellipse fill="white" stroke="black" cx="428.5" cy="-99.87" rx="73.58" ry="26.74"/>
<text text-anchor="middle" x="428.5" y="-103.67" font-family="Helvetica,sans-Serif" font-size="14.00">▶ Modify</text>
<text text-anchor="middle" x="428.5" y="-88.67" font-family="Helvetica,sans-Serif" font-size="14.00">README.md</text>
</g>
<!-- 33de47a6&#45;b490&#45;45fc&#45;b9c8&#45;cf86c9db341a&#45;&gt;a940c2d9&#45;49a9&#45;4693&#45;81d8&#45;95ea5ef8f3a8 -->
<g id="edge2" class="edge">
<title>33de47a6&#45;b490&#45;45fc&#45;b9c8&#45;cf86c9db341a&#45;&gt;a940c2d9&#45;49a9&#45;4693&#45;81d8&#45;95ea5ef8f3a8</title>
<path fill="none" stroke="black" d="M286.33,-99.87C305.8,-99.87 325.27,-99.87 344.73,-99.87"/>
<polygon fill="black" stroke="black" points="344.91,-103.37 354.91,-99.87 344.91,-96.37 344.91,-103.37"/>
</g>
<!-- 87db2e0d&#45;4154&#45;4f8e&#45;ab0c&#45;ebc615a597a4 -->
<g id="node5" class="node">
<title>87db2e0d&#45;4154&#45;4f8e&#45;ab0c&#45;ebc615a597a4</title>
<polygon fill="white" stroke="black" points="295,-36 0,-36 0,0 295,0 295,-36"/>
<text text-anchor="middle" x="147.5" y="-14.3" font-family="Helvetica,sans-Serif" font-size="14.00">▶ Run GitHub Actions for `README.md`</text>
</g>
<!-- 33de47a6&#45;b490&#45;45fc&#45;b9c8&#45;cf86c9db341a&#45;&gt;87db2e0d&#45;4154&#45;4f8e&#45;ab0c&#45;ebc615a597a4 -->
<g id="edge1" class="edge">
<title>33de47a6&#45;b490&#45;45fc&#45;b9c8&#45;cf86c9db341a&#45;&gt;87db2e0d&#45;4154&#45;4f8e&#45;ab0c&#45;ebc615a597a4</title>
<path fill="none" stroke="black" stroke-dasharray="5,2" d="M191.93,-73.6C184.22,-64.13 175.47,-53.37 167.79,-43.93"/>
<polygon fill="black" stroke="black" points="170.39,-41.58 161.36,-36.04 164.96,-46 170.39,-41.58"/>
</g>
<!-- a940c2d9&#45;49a9&#45;4693&#45;81d8&#45;95ea5ef8f3a8&#45;&gt;end -->
<g id="edge5" class="edge">
<title>a940c2d9&#45;49a9&#45;4693&#45;81d8&#45;95ea5ef8f3a8&#45;&gt;end</title>
<path fill="none" stroke="black" d="M502.22,-99.87C520.84,-99.87 538.64,-99.87 549.56,-99.87"/>
<polygon fill="black" stroke="black" points="549.78,-103.37 559.78,-99.87 549.78,-96.37 549.78,-103.37"/>
<text text-anchor="middle" x="531.02" y="-106.67" font-family="Helvetica,sans-Serif" font-size="14.00">Finish</text>
</g>
<!-- 6bdf895b&#45;2b95&#45;4576&#45;babb&#45;8ad2be978f44 -->
<g id="node6" class="node">
<title>6bdf895b&#45;2b95&#45;4576&#45;babb&#45;8ad2be978f44</title>
<polygon fill="white" stroke="black" points="608,-36 313,-36 313,0 608,0 608,-36"/>
<text text-anchor="middle" x="460.5" y="-14.3" font-family="Helvetica,sans-Serif" font-size="14.00">▶ Run GitHub Actions for `README.md`</text>
</g>
<!-- a940c2d9&#45;49a9&#45;4693&#45;81d8&#45;95ea5ef8f3a8&#45;&gt;6bdf895b&#45;2b95&#45;4576&#45;babb&#45;8ad2be978f44 -->
<g id="edge3" class="edge">
<title>a940c2d9&#45;49a9&#45;4693&#45;81d8&#45;95ea5ef8f3a8&#45;&gt;6bdf895b&#45;2b95&#45;4576&#45;babb&#45;8ad2be978f44</title>
<path fill="none" stroke="black" stroke-dasharray="5,2" d="M438.8,-73.16C442.31,-64.41 446.23,-54.62 449.77,-45.79"/>
<polygon fill="black" stroke="black" points="453.08,-46.92 453.55,-36.34 446.59,-44.32 453.08,-46.92"/>
</g>
</g>
</svg>
