<?xml version="1.0" encoding="UTF-8" standalone="no"?>
<!DOCTYPE svg PUBLIC "-//W3C//DTD SVG 1.1//EN"
 "http://www.w3.org/Graphics/SVG/1.1/DTD/svg11.dtd">
<!-- Generated by graphviz version 2.43.0 (0)
 -->
<!-- Title: %3 Pages: 1 -->
<svg width="1621pt" height="165pt"
 viewBox="0.00 0.00 1621.00 164.74" xmlns="http://www.w3.org/2000/svg" xmlns:xlink="http://www.w3.org/1999/xlink">
<g id="graph0" class="graph" transform="scale(1 1) rotate(0) translate(36 128.74)">
<title>%3</title>
<polygon fill="dimgray" stroke="transparent" points="-36,36 -36,-128.74 1585,-128.74 1585,36 -36,36"/>
<text text-anchor="middle" x="774.5" y="-77.54" font-family="Helvetica,sans-Serif" font-size="14.00">Sweep&#39;s Plan &amp; Progress</text>
<!-- start -->
<g id="node1" class="node">
<title>start</title>
</g>
<!-- f54fbbbf&#45;7824&#45;421f&#45;8191&#45;e0d03fa6b47e -->
<g id="node3" class="node">
<title>f54fbbbf&#45;7824&#45;421f&#45;8191&#45;e0d03fa6b47e</title>
<ellipse fill="#0ee832" stroke="black" cx="113.5" cy="-26.87" rx="60.62" ry="26.74"/>
<text text-anchor="middle" x="113.5" y="-30.67" font-family="Helvetica,sans-Serif" font-size="14.00">✓ Create</text>
<text text-anchor="middle" x="113.5" y="-15.67" font-family="Helvetica,sans-Serif" font-size="14.00">Dockerfile</text>
</g>
<!-- start&#45;&gt;f54fbbbf&#45;7824&#45;421f&#45;8191&#45;e0d03fa6b47e -->
<g id="edge4" class="edge">
<title>start&#45;&gt;f54fbbbf&#45;7824&#45;421f&#45;8191&#45;e0d03fa6b47e</title>
<path fill="none" stroke="black" d="M1.22,-26.87C4.92,-26.87 22.36,-26.87 42.44,-26.87"/>
<polygon fill="black" stroke="black" points="42.46,-30.37 52.46,-26.87 42.46,-23.37 42.46,-30.37"/>
<text text-anchor="middle" x="26.84" y="-33.67" font-family="Helvetica,sans-Serif" font-size="14.00">Start</text>
</g>
<!-- end -->
<g id="node2" class="node">
<title>end</title>
</g>
<!-- e6541a1e&#45;7696&#45;41fc&#45;aab3&#45;ff3cbf375def -->
<g id="node4" class="node">
<title>e6541a1e&#45;7696&#45;41fc&#45;aab3&#45;ff3cbf375def</title>
<ellipse fill="#ee0000" stroke="black" cx="356.5" cy="-26.87" rx="146.24" ry="26.74"/>
<text text-anchor="middle" x="356.5" y="-30.67" font-family="Helvetica,sans-Serif" font-size="14.00">✗ Modify</text>
<text text-anchor="middle" x="356.5" y="-15.67" font-family="Helvetica,sans-Serif" font-size="14.00">NET&#45;Hack&#45;2023/Program.cs</text>
</g>
<!-- f54fbbbf&#45;7824&#45;421f&#45;8191&#45;e0d03fa6b47e&#45;&gt;e6541a1e&#45;7696&#45;41fc&#45;aab3&#45;ff3cbf375def -->
<g id="edge1" class="edge">
<title>f54fbbbf&#45;7824&#45;421f&#45;8191&#45;e0d03fa6b47e&#45;&gt;e6541a1e&#45;7696&#45;41fc&#45;aab3&#45;ff3cbf375def</title>
<path fill="none" stroke="black" d="M174.72,-26.87C183.05,-26.87 191.38,-26.87 199.71,-26.87"/>
<polygon fill="black" stroke="black" points="199.87,-30.37 209.87,-26.87 199.87,-23.37 199.87,-30.37"/>
</g>
<!-- 6acb7604&#45;2f72&#45;4b28&#45;8ab8&#45;479596381b58 -->
<g id="node5" class="node">
<title>6acb7604&#45;2f72&#45;4b28&#45;8ab8&#45;479596381b58</title>
<ellipse fill="yellow" stroke="black" cx="850.5" cy="-26.87" rx="311.67" ry="26.74"/>
<text text-anchor="middle" x="850.5" y="-30.67" font-family="Helvetica,sans-Serif" font-size="14.00">⋯ Modify</text>
<text text-anchor="middle" x="850.5" y="-15.67" font-family="Helvetica,sans-Serif" font-size="14.00">NET&#45;Hack&#45;2023/obj/NET&#45;Hack&#45;2023.csproj.nuget.dgspec.json</text>
</g>
<!-- e6541a1e&#45;7696&#45;41fc&#45;aab3&#45;ff3cbf375def&#45;&gt;6acb7604&#45;2f72&#45;4b28&#45;8ab8&#45;479596381b58 -->
<g id="edge2" class="edge">
<title>e6541a1e&#45;7696&#45;41fc&#45;aab3&#45;ff3cbf375def&#45;&gt;6acb7604&#45;2f72&#45;4b28&#45;8ab8&#45;479596381b58</title>
<path fill="none" stroke="black" d="M503.16,-26.87C511.52,-26.87 519.88,-26.87 528.24,-26.87"/>
<polygon fill="black" stroke="black" points="528.43,-30.37 538.43,-26.87 528.43,-23.37 528.43,-30.37"/>
</g>
<!-- 3caacc1e&#45;679e&#45;480c&#45;8b58&#45;da7e2ee09a92 -->
<g id="node6" class="node">
<title>3caacc1e&#45;679e&#45;480c&#45;8b58&#45;da7e2ee09a92</title>
<ellipse fill="white" stroke="black" cx="1344.5" cy="-26.87" rx="146.24" ry="26.74"/>
<text text-anchor="middle" x="1344.5" y="-30.67" font-family="Helvetica,sans-Serif" font-size="14.00">▶ Modify</text>
<text text-anchor="middle" x="1344.5" y="-15.67" font-family="Helvetica,sans-Serif" font-size="14.00">azure_oai_sdk_README.md</text>
</g>
<!-- 6acb7604&#45;2f72&#45;4b28&#45;8ab8&#45;479596381b58&#45;&gt;3caacc1e&#45;679e&#45;480c&#45;8b58&#45;da7e2ee09a92 -->
<g id="edge3" class="edge">
<title>6acb7604&#45;2f72&#45;4b28&#45;8ab8&#45;479596381b58&#45;&gt;3caacc1e&#45;679e&#45;480c&#45;8b58&#45;da7e2ee09a92</title>
<path fill="none" stroke="black" d="M1162.63,-26.87C1170.96,-26.87 1179.29,-26.87 1187.63,-26.87"/>
<polygon fill="black" stroke="black" points="1187.79,-30.37 1197.79,-26.87 1187.79,-23.37 1187.79,-30.37"/>
</g>
<!-- 3caacc1e&#45;679e&#45;480c&#45;8b58&#45;da7e2ee09a92&#45;&gt;end -->
<g id="edge5" class="edge">
<title>3caacc1e&#45;679e&#45;480c&#45;8b58&#45;da7e2ee09a92&#45;&gt;end</title>
<path fill="none" stroke="black" d="M1491.13,-26.87C1510.65,-26.87 1527.45,-26.87 1537.74,-26.87"/>
<polygon fill="black" stroke="black" points="1537.86,-30.37 1547.86,-26.87 1537.86,-23.37 1537.86,-30.37"/>
<text text-anchor="middle" x="1519.44" y="-33.67" font-family="Helvetica,sans-Serif" font-size="14.00">Finish</text>
</g>
</g>
</svg>
