<?xml version="1.0" encoding="UTF-8" standalone="no"?>
<!DOCTYPE svg PUBLIC "-//W3C//DTD SVG 1.1//EN"
 "http://www.w3.org/Graphics/SVG/1.1/DTD/svg11.dtd">
<!-- Generated by graphviz version 2.43.0 (0)
 -->
<!-- Title: %3 Pages: 1 -->
<svg width="686pt" height="238pt"
 viewBox="0.00 0.00 685.50 237.74" xmlns="http://www.w3.org/2000/svg" xmlns:xlink="http://www.w3.org/1999/xlink">
<g id="graph0" class="graph" transform="scale(1 1) rotate(0) translate(36 201.74)">
<title>%3</title>
<polygon fill="dimgray" stroke="transparent" points="-36,36 -36,-201.74 649.5,-201.74 649.5,36 -36,36"/>
<text text-anchor="middle" x="306.75" y="-150.54" font-family="Helvetica,sans-Serif" font-size="14.00">Sweep&#39;s Plan &amp; Progress</text>
<!-- start -->
<g id="node1" class="node">
<title>start</title>
</g>
<!-- 23476e04&#45;9c18&#45;44b0&#45;8de8&#45;08058c3f7b17 -->
<g id="node3" class="node">
<title>23476e04&#45;9c18&#45;44b0&#45;8de8&#45;08058c3f7b17</title>
<ellipse fill="#ee0000" stroke="black" cx="214" cy="-99.87" rx="73.58" ry="26.74"/>
<text text-anchor="middle" x="214" y="-103.67" font-family="Helvetica,sans-Serif" font-size="14.00">✗ Modify</text>
<text text-anchor="middle" x="214" y="-88.67" font-family="Helvetica,sans-Serif" font-size="14.00">README.md</text>
</g>
<!-- start&#45;&gt;23476e04&#45;9c18&#45;44b0&#45;8de8&#45;08058c3f7b17 -->
<g id="edge4" class="edge">
<title>start&#45;&gt;23476e04&#45;9c18&#45;44b0&#45;8de8&#45;08058c3f7b17</title>
<path fill="none" stroke="black" d="M88.8,-99.87C92.64,-99.87 109.74,-99.87 130.12,-99.87"/>
<polygon fill="black" stroke="black" points="130.35,-103.37 140.35,-99.87 130.35,-96.37 130.35,-103.37"/>
<text text-anchor="middle" x="114.48" y="-106.67" font-family="Helvetica,sans-Serif" font-size="14.00">Start</text>
</g>
<!-- end -->
<g id="node2" class="node">
<title>end</title>
</g>
<!-- 49594c20&#45;e34a&#45;496f&#45;9a9b&#45;2b5488a8c5a7 -->
<g id="node4" class="node">
<title>49594c20&#45;e34a&#45;496f&#45;9a9b&#45;2b5488a8c5a7</title>
<ellipse fill="#ee0000" stroke="black" cx="431" cy="-99.87" rx="73.58" ry="26.74"/>
<text text-anchor="middle" x="431" y="-103.67" font-family="Helvetica,sans-Serif" font-size="14.00">✗ Modify</text>
<text text-anchor="middle" x="431" y="-88.67" font-family="Helvetica,sans-Serif" font-size="14.00">README.md</text>
</g>
<!-- 23476e04&#45;9c18&#45;44b0&#45;8de8&#45;08058c3f7b17&#45;&gt;49594c20&#45;e34a&#45;496f&#45;9a9b&#45;2b5488a8c5a7 -->
<g id="edge2" class="edge">
<title>23476e04&#45;9c18&#45;44b0&#45;8de8&#45;08058c3f7b17&#45;&gt;49594c20&#45;e34a&#45;496f&#45;9a9b&#45;2b5488a8c5a7</title>
<path fill="none" stroke="black" d="M287.75,-99.87C307.61,-99.87 327.48,-99.87 347.35,-99.87"/>
<polygon fill="black" stroke="black" points="347.41,-103.37 357.41,-99.87 347.41,-96.37 347.41,-103.37"/>
</g>
<!-- e0000507&#45;19cb&#45;494f&#45;9f75&#45;b86818a06af0 -->
<g id="node5" class="node">
<title>e0000507&#45;19cb&#45;494f&#45;9f75&#45;b86818a06af0</title>
<polygon fill="#ee0000" stroke="black" points="296,-36 0,-36 0,0 296,0 296,-36"/>
<text text-anchor="middle" x="148" y="-14.3" font-family="Helvetica,sans-Serif" font-size="14.00">✗ Run GitHub Actions for `README.md`</text>
</g>
<!-- 23476e04&#45;9c18&#45;44b0&#45;8de8&#45;08058c3f7b17&#45;&gt;e0000507&#45;19cb&#45;494f&#45;9f75&#45;b86818a06af0 -->
<g id="edge1" class="edge">
<title>23476e04&#45;9c18&#45;44b0&#45;8de8&#45;08058c3f7b17&#45;&gt;e0000507&#45;19cb&#45;494f&#45;9f75&#45;b86818a06af0</title>
<path fill="none" stroke="black" stroke-dasharray="5,2" d="M193.48,-74.04C185.64,-64.54 176.69,-53.72 168.82,-44.19"/>
<polygon fill="black" stroke="black" points="171.3,-41.7 162.23,-36.22 165.9,-46.16 171.3,-41.7"/>
</g>
<!-- 49594c20&#45;e34a&#45;496f&#45;9a9b&#45;2b5488a8c5a7&#45;&gt;end -->
<g id="edge5" class="edge">
<title>49594c20&#45;e34a&#45;496f&#45;9a9b&#45;2b5488a8c5a7&#45;&gt;end</title>
<path fill="none" stroke="black" d="M504.72,-99.87C523.34,-99.87 541.14,-99.87 552.06,-99.87"/>
<polygon fill="black" stroke="black" points="552.28,-103.37 562.28,-99.87 552.28,-96.37 552.28,-103.37"/>
<text text-anchor="middle" x="533.52" y="-106.67" font-family="Helvetica,sans-Serif" font-size="14.00">Finish</text>
</g>
<!-- fd885f4e&#45;a433&#45;4352&#45;b8fb&#45;c5e838116f42 -->
<g id="node6" class="node">
<title>fd885f4e&#45;a433&#45;4352&#45;b8fb&#45;c5e838116f42</title>
<polygon fill="yellow" stroke="black" points="613.5,-36 314.5,-36 314.5,0 613.5,0 613.5,-36"/>
<text text-anchor="middle" x="464" y="-14.3" font-family="Helvetica,sans-Serif" font-size="14.00">⋯ Run GitHub Actions for `README.md`</text>
</g>
<!-- 49594c20&#45;e34a&#45;496f&#45;9a9b&#45;2b5488a8c5a7&#45;&gt;fd885f4e&#45;a433&#45;4352&#45;b8fb&#45;c5e838116f42 -->
<g id="edge3" class="edge">
<title>49594c20&#45;e34a&#45;496f&#45;9a9b&#45;2b5488a8c5a7&#45;&gt;fd885f4e&#45;a433&#45;4352&#45;b8fb&#45;c5e838116f42</title>
<path fill="none" stroke="black" stroke-dasharray="5,2" d="M441.62,-73.16C445.24,-64.41 449.28,-54.62 452.93,-45.79"/>
<polygon fill="black" stroke="black" points="456.25,-46.92 456.84,-36.34 449.78,-44.24 456.25,-46.92"/>
</g>
</g>
</svg>
