<?xml version="1.0" encoding="UTF-8" standalone="no"?>
<!DOCTYPE svg PUBLIC "-//W3C//DTD SVG 1.1//EN"
 "http://www.w3.org/Graphics/SVG/1.1/DTD/svg11.dtd">
<!-- Generated by graphviz version 2.43.0 (0)
 -->
<!-- Title: %3 Pages: 1 -->
<svg width="1255pt" height="165pt"
 viewBox="0.00 0.00 1255.00 164.74" xmlns="http://www.w3.org/2000/svg" xmlns:xlink="http://www.w3.org/1999/xlink">
<g id="graph0" class="graph" transform="scale(1 1) rotate(0) translate(36 128.74)">
<title>%3</title>
<polygon fill="dimgray" stroke="transparent" points="-36,36 -36,-128.74 1219,-128.74 1219,36 -36,36"/>
<text text-anchor="middle" x="591.5" y="-77.54" font-family="Helvetica,sans-Serif" font-size="14.00">Sweep&#39;s Plan &amp; Progress</text>
<!-- start -->
<g id="node1" class="node">
<title>start</title>
</g>
<!-- e888ba51&#45;9879&#45;4b1a&#45;a8c7&#45;68a82731dd65 -->
<g id="node3" class="node">
<title>e888ba51&#45;9879&#45;4b1a&#45;a8c7&#45;68a82731dd65</title>
<ellipse fill="#0ee832" stroke="black" cx="167.5" cy="-26.87" rx="115.02" ry="26.74"/>
<text text-anchor="middle" x="167.5" y="-30.67" font-family="Helvetica,sans-Serif" font-size="14.00">✓ Create</text>
<text text-anchor="middle" x="167.5" y="-15.67" font-family="Helvetica,sans-Serif" font-size="14.00">EventAssistantBot.cs</text>
</g>
<!-- start&#45;&gt;e888ba51&#45;9879&#45;4b1a&#45;a8c7&#45;68a82731dd65 -->
<g id="edge4" class="edge">
<title>start&#45;&gt;e888ba51&#45;9879&#45;4b1a&#45;a8c7&#45;68a82731dd65</title>
<path fill="none" stroke="black" d="M1.24,-26.87C4.82,-26.87 20.91,-26.87 41.78,-26.87"/>
<polygon fill="black" stroke="black" points="42.03,-30.37 52.03,-26.87 42.03,-23.37 42.03,-30.37"/>
<text text-anchor="middle" x="26.62" y="-33.67" font-family="Helvetica,sans-Serif" font-size="14.00">Start</text>
</g>
<!-- end -->
<g id="node2" class="node">
<title>end</title>
</g>
<!-- 6754a499&#45;bcda&#45;4bce&#45;8931&#45;09c5bfbebc0b -->
<g id="node4" class="node">
<title>6754a499&#45;bcda&#45;4bce&#45;8931&#45;09c5bfbebc0b</title>
<ellipse fill="#0ee832" stroke="black" cx="457.5" cy="-26.87" rx="139.1" ry="26.74"/>
<text text-anchor="middle" x="457.5" y="-30.67" font-family="Helvetica,sans-Serif" font-size="14.00">✓ Create</text>
<text text-anchor="middle" x="457.5" y="-15.67" font-family="Helvetica,sans-Serif" font-size="14.00">EventAssistantBotTests.cs</text>
</g>
<!-- e888ba51&#45;9879&#45;4b1a&#45;a8c7&#45;68a82731dd65&#45;&gt;6754a499&#45;bcda&#45;4bce&#45;8931&#45;09c5bfbebc0b -->
<g id="edge1" class="edge">
<title>e888ba51&#45;9879&#45;4b1a&#45;a8c7&#45;68a82731dd65&#45;&gt;6754a499&#45;bcda&#45;4bce&#45;8931&#45;09c5bfbebc0b</title>
<path fill="none" stroke="black" d="M282.76,-26.87C291.09,-26.87 299.42,-26.87 307.75,-26.87"/>
<polygon fill="black" stroke="black" points="307.92,-30.37 317.92,-26.87 307.92,-23.37 307.92,-30.37"/>
</g>
<!-- 799110bf&#45;ddfc&#45;4c28&#45;9051&#45;da035faef0dc -->
<g id="node5" class="node">
<title>799110bf&#45;ddfc&#45;4c28&#45;9051&#45;da035faef0dc</title>
<ellipse fill="#0ee832" stroke="black" cx="714.5" cy="-26.87" rx="82.05" ry="26.74"/>
<text text-anchor="middle" x="714.5" y="-30.67" font-family="Helvetica,sans-Serif" font-size="14.00">✓ Modify</text>
<text text-anchor="middle" x="714.5" y="-15.67" font-family="Helvetica,sans-Serif" font-size="14.00">OpenAI_api.cs</text>
</g>
<!-- 6754a499&#45;bcda&#45;4bce&#45;8931&#45;09c5bfbebc0b&#45;&gt;799110bf&#45;ddfc&#45;4c28&#45;9051&#45;da035faef0dc -->
<g id="edge2" class="edge">
<title>6754a499&#45;bcda&#45;4bce&#45;8931&#45;09c5bfbebc0b&#45;&gt;799110bf&#45;ddfc&#45;4c28&#45;9051&#45;da035faef0dc</title>
<path fill="none" stroke="black" d="M597.04,-26.87C605.42,-26.87 613.79,-26.87 622.16,-26.87"/>
<polygon fill="black" stroke="black" points="622.37,-30.37 632.37,-26.87 622.37,-23.37 622.37,-30.37"/>
</g>
<!-- 394b9a73&#45;1f2d&#45;4ab2&#45;b258&#45;7384df4370ae -->
<g id="node6" class="node">
<title>394b9a73&#45;1f2d&#45;4ab2&#45;b258&#45;7384df4370ae</title>
<ellipse fill="yellow" stroke="black" cx="978.5" cy="-26.87" rx="146.24" ry="26.74"/>
<text text-anchor="middle" x="978.5" y="-30.67" font-family="Helvetica,sans-Serif" font-size="14.00">⋯ Modify</text>
<text text-anchor="middle" x="978.5" y="-15.67" font-family="Helvetica,sans-Serif" font-size="14.00">azure_oai_sdk_README.md</text>
</g>
<!-- 799110bf&#45;ddfc&#45;4c28&#45;9051&#45;da035faef0dc&#45;&gt;394b9a73&#45;1f2d&#45;4ab2&#45;b258&#45;7384df4370ae -->
<g id="edge3" class="edge">
<title>799110bf&#45;ddfc&#45;4c28&#45;9051&#45;da035faef0dc&#45;&gt;394b9a73&#45;1f2d&#45;4ab2&#45;b258&#45;7384df4370ae</title>
<path fill="none" stroke="black" d="M796.74,-26.87C805.07,-26.87 813.4,-26.87 821.73,-26.87"/>
<polygon fill="black" stroke="black" points="821.89,-30.37 831.89,-26.87 821.89,-23.37 821.89,-30.37"/>
</g>
<!-- 394b9a73&#45;1f2d&#45;4ab2&#45;b258&#45;7384df4370ae&#45;&gt;end -->
<g id="edge5" class="edge">
<title>394b9a73&#45;1f2d&#45;4ab2&#45;b258&#45;7384df4370ae&#45;&gt;end</title>
<path fill="none" stroke="black" d="M1125.13,-26.87C1144.65,-26.87 1161.45,-26.87 1171.74,-26.87"/>
<polygon fill="black" stroke="black" points="1171.86,-30.37 1181.86,-26.87 1171.86,-23.37 1171.86,-30.37"/>
<text text-anchor="middle" x="1153.44" y="-33.67" font-family="Helvetica,sans-Serif" font-size="14.00">Finish</text>
</g>
</g>
</svg>
