<?xml version="1.0" encoding="UTF-8" standalone="no"?>
<!DOCTYPE svg PUBLIC "-//W3C//DTD SVG 1.1//EN"
 "http://www.w3.org/Graphics/SVG/1.1/DTD/svg11.dtd">
<!-- Generated by graphviz version 2.43.0 (0)
 -->
<!-- Title: %3 Pages: 1 -->
<svg width="865pt" height="165pt"
 viewBox="0.00 0.00 865.00 164.74" xmlns="http://www.w3.org/2000/svg" xmlns:xlink="http://www.w3.org/1999/xlink">
<g id="graph0" class="graph" transform="scale(1 1) rotate(0) translate(36 128.74)">
<title>%3</title>
<polygon fill="dimgray" stroke="transparent" points="-36,36 -36,-128.74 829,-128.74 829,36 -36,36"/>
<text text-anchor="middle" x="396.5" y="-77.54" font-family="Helvetica,sans-Serif" font-size="14.00">Sweep&#39;s Plan &amp; Progress</text>
<!-- start -->
<g id="node1" class="node">
<title>start</title>
</g>
<!-- 1ee5e4d8&#45;f14c&#45;4967&#45;80b9&#45;1be8520785cc -->
<g id="node3" class="node">
<title>1ee5e4d8&#45;f14c&#45;4967&#45;80b9&#45;1be8520785cc</title>
<ellipse fill="#0ee832" stroke="black" cx="229.5" cy="-26.87" rx="176.55" ry="26.74"/>
<text text-anchor="middle" x="229.5" y="-30.67" font-family="Helvetica,sans-Serif" font-size="14.00">✓ Modify</text>
<text text-anchor="middle" x="229.5" y="-15.67" font-family="Helvetica,sans-Serif" font-size="14.00">NET&#45;Hack&#45;2023/Hubs/ChatHub.cs</text>
</g>
<!-- start&#45;&gt;1ee5e4d8&#45;f14c&#45;4967&#45;80b9&#45;1be8520785cc -->
<g id="edge2" class="edge">
<title>start&#45;&gt;1ee5e4d8&#45;f14c&#45;4967&#45;80b9&#45;1be8520785cc</title>
<path fill="none" stroke="black" d="M1.16,-26.87C4.52,-26.87 20.48,-26.87 42.53,-26.87"/>
<polygon fill="black" stroke="black" points="42.7,-30.37 52.7,-26.87 42.7,-23.37 42.7,-30.37"/>
<text text-anchor="middle" x="26.86" y="-33.67" font-family="Helvetica,sans-Serif" font-size="14.00">Start</text>
</g>
<!-- end -->
<g id="node2" class="node">
<title>end</title>
</g>
<!-- 0a39deb2&#45;d47c&#45;4593&#45;b5ad&#45;bedb3341b5b9 -->
<g id="node4" class="node">
<title>0a39deb2&#45;d47c&#45;4593&#45;b5ad&#45;bedb3341b5b9</title>
<ellipse fill="#0ee832" stroke="black" cx="588.5" cy="-26.87" rx="146.24" ry="26.74"/>
<text text-anchor="middle" x="588.5" y="-30.67" font-family="Helvetica,sans-Serif" font-size="14.00">✓ Modify</text>
<text text-anchor="middle" x="588.5" y="-15.67" font-family="Helvetica,sans-Serif" font-size="14.00">NET&#45;Hack&#45;2023/Program.cs</text>
</g>
<!-- 1ee5e4d8&#45;f14c&#45;4967&#45;80b9&#45;1be8520785cc&#45;&gt;0a39deb2&#45;d47c&#45;4593&#45;b5ad&#45;bedb3341b5b9 -->
<g id="edge1" class="edge">
<title>1ee5e4d8&#45;f14c&#45;4967&#45;80b9&#45;1be8520785cc&#45;&gt;0a39deb2&#45;d47c&#45;4593&#45;b5ad&#45;bedb3341b5b9</title>
<path fill="none" stroke="black" d="M406.55,-26.87C414.97,-26.87 423.39,-26.87 431.81,-26.87"/>
<polygon fill="black" stroke="black" points="432.08,-30.37 442.08,-26.87 432.08,-23.37 432.08,-30.37"/>
</g>
<!-- 0a39deb2&#45;d47c&#45;4593&#45;b5ad&#45;bedb3341b5b9&#45;&gt;end -->
<g id="edge3" class="edge">
<title>0a39deb2&#45;d47c&#45;4593&#45;b5ad&#45;bedb3341b5b9&#45;&gt;end</title>
<path fill="none" stroke="black" d="M735.13,-26.87C754.65,-26.87 771.45,-26.87 781.74,-26.87"/>
<polygon fill="black" stroke="black" points="781.86,-30.37 791.86,-26.87 781.86,-23.37 781.86,-30.37"/>
<text text-anchor="middle" x="763.44" y="-33.67" font-family="Helvetica,sans-Serif" font-size="14.00">Finish</text>
</g>
</g>
</svg>
