<?xml version="1.0" encoding="UTF-8" standalone="no"?>
<!DOCTYPE svg PUBLIC "-//W3C//DTD SVG 1.1//EN"
 "http://www.w3.org/Graphics/SVG/1.1/DTD/svg11.dtd">
<!-- Generated by graphviz version 2.43.0 (0)
 -->
<!-- Title: %3 Pages: 1 -->
<svg width="827pt" height="165pt"
 viewBox="0.00 0.00 827.00 164.74" xmlns="http://www.w3.org/2000/svg" xmlns:xlink="http://www.w3.org/1999/xlink">
<g id="graph0" class="graph" transform="scale(1 1) rotate(0) translate(36 128.74)">
<title>%3</title>
<polygon fill="dimgray" stroke="transparent" points="-36,36 -36,-128.74 791,-128.74 791,36 -36,36"/>
<text text-anchor="middle" x="377.5" y="-77.54" font-family="Helvetica,sans-Serif" font-size="14.00">Sweep&#39;s Plan &amp; Progress</text>
<!-- start -->
<g id="node1" class="node">
<title>start</title>
</g>
<!-- 5edef5a5&#45;02c2&#45;42e0&#45;b9eb&#45;c05f491989e1 -->
<g id="node3" class="node">
<title>5edef5a5&#45;02c2&#45;42e0&#45;b9eb&#45;c05f491989e1</title>
<ellipse fill="#0ee832" stroke="black" cx="134.5" cy="-26.87" rx="82.05" ry="26.74"/>
<text text-anchor="middle" x="134.5" y="-30.67" font-family="Helvetica,sans-Serif" font-size="14.00">✓ Modify</text>
<text text-anchor="middle" x="134.5" y="-15.67" font-family="Helvetica,sans-Serif" font-size="14.00">OpenAI_api.cs</text>
</g>
<!-- start&#45;&gt;5edef5a5&#45;02c2&#45;42e0&#45;b9eb&#45;c05f491989e1 -->
<g id="edge3" class="edge">
<title>start&#45;&gt;5edef5a5&#45;02c2&#45;42e0&#45;b9eb&#45;c05f491989e1</title>
<path fill="none" stroke="black" d="M1.36,-26.87C5.23,-26.87 21.78,-26.87 41.96,-26.87"/>
<polygon fill="black" stroke="black" points="42.13,-30.37 52.13,-26.87 42.13,-23.37 42.13,-30.37"/>
<text text-anchor="middle" x="26.74" y="-33.67" font-family="Helvetica,sans-Serif" font-size="14.00">Start</text>
</g>
<!-- end -->
<g id="node2" class="node">
<title>end</title>
</g>
<!-- 7eccf6e9&#45;9690&#45;49ff&#45;a6e0&#45;7aae6165f263 -->
<g id="node4" class="node">
<title>7eccf6e9&#45;9690&#45;49ff&#45;a6e0&#45;7aae6165f263</title>
<ellipse fill="yellow" stroke="black" cx="329.5" cy="-26.87" rx="77.56" ry="26.74"/>
<text text-anchor="middle" x="329.5" y="-30.67" font-family="Helvetica,sans-Serif" font-size="14.00">⋯ Create</text>
<text text-anchor="middle" x="329.5" y="-15.67" font-family="Helvetica,sans-Serif" font-size="14.00">TaxService.cs</text>
</g>
<!-- 5edef5a5&#45;02c2&#45;42e0&#45;b9eb&#45;c05f491989e1&#45;&gt;7eccf6e9&#45;9690&#45;49ff&#45;a6e0&#45;7aae6165f263 -->
<g id="edge1" class="edge">
<title>5edef5a5&#45;02c2&#45;42e0&#45;b9eb&#45;c05f491989e1&#45;&gt;7eccf6e9&#45;9690&#45;49ff&#45;a6e0&#45;7aae6165f263</title>
<path fill="none" stroke="black" d="M216.77,-26.87C225.01,-26.87 233.25,-26.87 241.5,-26.87"/>
<polygon fill="black" stroke="black" points="241.55,-30.37 251.55,-26.87 241.55,-23.37 241.55,-30.37"/>
</g>
<!-- 063970bd&#45;b8e3&#45;4cdf&#45;a650&#45;a34a76b889ec -->
<g id="node5" class="node">
<title>063970bd&#45;b8e3&#45;4cdf&#45;a650&#45;a34a76b889ec</title>
<ellipse fill="white" stroke="black" cx="569.5" cy="-26.87" rx="126.64" ry="26.74"/>
<text text-anchor="middle" x="569.5" y="-30.67" font-family="Helvetica,sans-Serif" font-size="14.00">▶ Create</text>
<text text-anchor="middle" x="569.5" y="-15.67" font-family="Helvetica,sans-Serif" font-size="14.00">TestsTaxServiceTests.cs</text>
</g>
<!-- 7eccf6e9&#45;9690&#45;49ff&#45;a6e0&#45;7aae6165f263&#45;&gt;063970bd&#45;b8e3&#45;4cdf&#45;a650&#45;a34a76b889ec -->
<g id="edge2" class="edge">
<title>7eccf6e9&#45;9690&#45;49ff&#45;a6e0&#45;7aae6165f263&#45;&gt;063970bd&#45;b8e3&#45;4cdf&#45;a650&#45;a34a76b889ec</title>
<path fill="none" stroke="black" d="M407.31,-26.87C415.72,-26.87 424.13,-26.87 432.54,-26.87"/>
<polygon fill="black" stroke="black" points="432.79,-30.37 442.79,-26.87 432.79,-23.37 432.79,-30.37"/>
</g>
<!-- 063970bd&#45;b8e3&#45;4cdf&#45;a650&#45;a34a76b889ec&#45;&gt;end -->
<g id="edge4" class="edge">
<title>063970bd&#45;b8e3&#45;4cdf&#45;a650&#45;a34a76b889ec&#45;&gt;end</title>
<path fill="none" stroke="black" d="M696.22,-26.87C715.95,-26.87 733.26,-26.87 743.78,-26.87"/>
<polygon fill="black" stroke="black" points="743.83,-30.37 753.83,-26.87 743.83,-23.37 743.83,-30.37"/>
<text text-anchor="middle" x="725.04" y="-33.67" font-family="Helvetica,sans-Serif" font-size="14.00">Finish</text>
</g>
</g>
</svg>
