<?xml version="1.0" encoding="UTF-8" standalone="no"?>
<!DOCTYPE svg PUBLIC "-//W3C//DTD SVG 1.1//EN"
 "http://www.w3.org/Graphics/SVG/1.1/DTD/svg11.dtd">
<!-- Generated by graphviz version 2.43.0 (0)
 -->
<!-- Title: %3 Pages: 1 -->
<svg width="2206pt" height="238pt"
 viewBox="0.00 0.00 2205.50 237.74" xmlns="http://www.w3.org/2000/svg" xmlns:xlink="http://www.w3.org/1999/xlink">
<g id="graph0" class="graph" transform="scale(1 1) rotate(0) translate(36 201.74)">
<title>%3</title>
<polygon fill="dimgray" stroke="transparent" points="-36,36 -36,-201.74 2169.5,-201.74 2169.5,36 -36,36"/>
<text text-anchor="middle" x="1066.75" y="-150.54" font-family="Helvetica,sans-Serif" font-size="14.00">Sweep&#39;s Plan &amp; Progress</text>
<!-- start -->
<g id="node1" class="node">
<title>start</title>
</g>
<!-- de96a816&#45;ef02&#45;4206&#45;91f9&#45;44b2a5c2301b -->
<g id="node3" class="node">
<title>de96a816&#45;ef02&#45;4206&#45;91f9&#45;44b2a5c2301b</title>
<ellipse fill="#0ee832" stroke="black" cx="246" cy="-99.87" rx="146.24" ry="26.74"/>
<text text-anchor="middle" x="246" y="-103.67" font-family="Helvetica,sans-Serif" font-size="14.00">✓ Modify</text>
<text text-anchor="middle" x="246" y="-88.67" font-family="Helvetica,sans-Serif" font-size="14.00">azure_oai_sdk_README.md</text>
</g>
<!-- start&#45;&gt;de96a816&#45;ef02&#45;4206&#45;91f9&#45;44b2a5c2301b -->
<g id="edge8" class="edge">
<title>start&#45;&gt;de96a816&#45;ef02&#45;4206&#45;91f9&#45;44b2a5c2301b</title>
<path fill="none" stroke="black" d="M48.57,-99.87C51.72,-99.87 67.66,-99.87 89.22,-99.87"/>
<polygon fill="black" stroke="black" points="89.51,-103.37 99.51,-99.87 89.51,-96.37 89.51,-103.37"/>
<text text-anchor="middle" x="74.06" y="-106.67" font-family="Helvetica,sans-Serif" font-size="14.00">Start</text>
</g>
<!-- end -->
<g id="node2" class="node">
<title>end</title>
</g>
<!-- a2d299ee&#45;a4dd&#45;4f38&#45;992f&#45;752e9fc865e5 -->
<g id="node4" class="node">
<title>a2d299ee&#45;a4dd&#45;4f38&#45;992f&#45;752e9fc865e5</title>
<ellipse fill="white" stroke="black" cx="619" cy="-99.87" rx="146.24" ry="26.74"/>
<text text-anchor="middle" x="619" y="-103.67" font-family="Helvetica,sans-Serif" font-size="14.00">▶ Modify</text>
<text text-anchor="middle" x="619" y="-88.67" font-family="Helvetica,sans-Serif" font-size="14.00">NET&#45;Hack&#45;2023/Program.cs</text>
</g>
<!-- de96a816&#45;ef02&#45;4206&#45;91f9&#45;44b2a5c2301b&#45;&gt;a2d299ee&#45;a4dd&#45;4f38&#45;992f&#45;752e9fc865e5 -->
<g id="edge2" class="edge">
<title>de96a816&#45;ef02&#45;4206&#45;91f9&#45;44b2a5c2301b&#45;&gt;a2d299ee&#45;a4dd&#45;4f38&#45;992f&#45;752e9fc865e5</title>
<path fill="none" stroke="black" d="M392.43,-99.87C415.79,-99.87 439.15,-99.87 462.52,-99.87"/>
<polygon fill="black" stroke="black" points="462.53,-103.37 472.53,-99.87 462.53,-96.37 462.53,-103.37"/>
</g>
<!-- b397e0fe&#45;63da&#45;4f0b&#45;9dd1&#45;efc31aea8964 -->
<g id="node7" class="node">
<title>b397e0fe&#45;63da&#45;4f0b&#45;9dd1&#45;efc31aea8964</title>
<polygon fill="yellow" stroke="black" points="402,-36 0,-36 0,0 402,0 402,-36"/>
<text text-anchor="middle" x="201" y="-14.3" font-family="Helvetica,sans-Serif" font-size="14.00">⋯ Run GitHub Actions for `azure_oai_sdk_README.md`</text>
</g>
<!-- de96a816&#45;ef02&#45;4206&#45;91f9&#45;44b2a5c2301b&#45;&gt;b397e0fe&#45;63da&#45;4f0b&#45;9dd1&#45;efc31aea8964 -->
<g id="edge1" class="edge">
<title>de96a816&#45;ef02&#45;4206&#45;91f9&#45;44b2a5c2301b&#45;&gt;b397e0fe&#45;63da&#45;4f0b&#45;9dd1&#45;efc31aea8964</title>
<path fill="none" stroke="black" stroke-dasharray="5,2" d="M231.27,-72.72C226.24,-63.8 220.63,-53.84 215.62,-44.95"/>
<polygon fill="black" stroke="black" points="218.62,-43.14 210.66,-36.15 212.52,-46.58 218.62,-43.14"/>
</g>
<!-- 3afc8869&#45;c352&#45;4f8b&#45;abcb&#45;caa4d8929c73 -->
<g id="node5" class="node">
<title>3afc8869&#45;c352&#45;4f8b&#45;abcb&#45;caa4d8929c73</title>
<ellipse fill="white" stroke="black" cx="1117" cy="-99.87" rx="261.76" ry="26.74"/>
<text text-anchor="middle" x="1117" y="-103.67" font-family="Helvetica,sans-Serif" font-size="14.00">▶ Modify</text>
<text text-anchor="middle" x="1117" y="-88.67" font-family="Helvetica,sans-Serif" font-size="14.00">NET&#45;Hack&#45;2023/bin/Debug/net6.0/appsettings.json</text>
</g>
<!-- a2d299ee&#45;a4dd&#45;4f38&#45;992f&#45;752e9fc865e5&#45;&gt;3afc8869&#45;c352&#45;4f8b&#45;abcb&#45;caa4d8929c73 -->
<g id="edge4" class="edge">
<title>a2d299ee&#45;a4dd&#45;4f38&#45;992f&#45;752e9fc865e5&#45;&gt;3afc8869&#45;c352&#45;4f8b&#45;abcb&#45;caa4d8929c73</title>
<path fill="none" stroke="black" d="M765.38,-99.87C791.98,-99.87 818.57,-99.87 845.16,-99.87"/>
<polygon fill="black" stroke="black" points="845.35,-103.37 855.35,-99.87 845.35,-96.37 845.35,-103.37"/>
</g>
<!-- 82c763b1&#45;7a53&#45;4f5d&#45;b139&#45;63498b7c631e -->
<g id="node8" class="node">
<title>82c763b1&#45;7a53&#45;4f5d&#45;b139&#45;63498b7c631e</title>
<polygon fill="white" stroke="black" points="818,-36 420,-36 420,0 818,0 818,-36"/>
<text text-anchor="middle" x="619" y="-14.3" font-family="Helvetica,sans-Serif" font-size="14.00">▶ Run GitHub Actions for `NET&#45;Hack&#45;2023/Program.cs`</text>
</g>
<!-- a2d299ee&#45;a4dd&#45;4f38&#45;992f&#45;752e9fc865e5&#45;&gt;82c763b1&#45;7a53&#45;4f5d&#45;b139&#45;63498b7c631e -->
<g id="edge3" class="edge">
<title>a2d299ee&#45;a4dd&#45;4f38&#45;992f&#45;752e9fc865e5&#45;&gt;82c763b1&#45;7a53&#45;4f5d&#45;b139&#45;63498b7c631e</title>
<path fill="none" stroke="black" stroke-dasharray="5,2" d="M619,-72.72C619,-64.27 619,-54.89 619,-46.36"/>
<polygon fill="black" stroke="black" points="622.5,-46.15 619,-36.15 615.5,-46.15 622.5,-46.15"/>
</g>
<!-- 9cc01caa&#45;a97f&#45;457e&#45;8f03&#45;ee667184b08f -->
<g id="node6" class="node">
<title>9cc01caa&#45;a97f&#45;457e&#45;8f03&#45;ee667184b08f</title>
<ellipse fill="white" stroke="black" cx="1745" cy="-99.87" rx="330.44" ry="26.74"/>
<text text-anchor="middle" x="1745" y="-103.67" font-family="Helvetica,sans-Serif" font-size="14.00">▶ Modify</text>
<text text-anchor="middle" x="1745" y="-88.67" font-family="Helvetica,sans-Serif" font-size="14.00">NET&#45;Hack&#45;2023/bin/Debug/net6.0/appsettings.Development.json</text>
</g>
<!-- 3afc8869&#45;c352&#45;4f8b&#45;abcb&#45;caa4d8929c73&#45;&gt;9cc01caa&#45;a97f&#45;457e&#45;8f03&#45;ee667184b08f -->
<g id="edge6" class="edge">
<title>3afc8869&#45;c352&#45;4f8b&#45;abcb&#45;caa4d8929c73&#45;&gt;9cc01caa&#45;a97f&#45;457e&#45;8f03&#45;ee667184b08f</title>
<path fill="none" stroke="black" d="M1378.87,-99.87C1387.44,-99.87 1396,-99.87 1404.57,-99.87"/>
<polygon fill="black" stroke="black" points="1404.63,-103.37 1414.63,-99.87 1404.63,-96.37 1404.63,-103.37"/>
</g>
<!-- 059b2dd5&#45;7085&#45;4b47&#45;81a9&#45;3b0b2f392785 -->
<g id="node9" class="node">
<title>059b2dd5&#45;7085&#45;4b47&#45;81a9&#45;3b0b2f392785</title>
<polygon fill="white" stroke="black" points="1397.5,-36 836.5,-36 836.5,0 1397.5,0 1397.5,-36"/>
<text text-anchor="middle" x="1117" y="-14.3" font-family="Helvetica,sans-Serif" font-size="14.00">▶ Run GitHub Actions for `NET&#45;Hack&#45;2023/bin/Debug/net6.0/appsettings.json`</text>
</g>
<!-- 3afc8869&#45;c352&#45;4f8b&#45;abcb&#45;caa4d8929c73&#45;&gt;059b2dd5&#45;7085&#45;4b47&#45;81a9&#45;3b0b2f392785 -->
<g id="edge5" class="edge">
<title>3afc8869&#45;c352&#45;4f8b&#45;abcb&#45;caa4d8929c73&#45;&gt;059b2dd5&#45;7085&#45;4b47&#45;81a9&#45;3b0b2f392785</title>
<path fill="none" stroke="black" stroke-dasharray="5,2" d="M1117,-72.72C1117,-64.27 1117,-54.89 1117,-46.36"/>
<polygon fill="black" stroke="black" points="1120.5,-46.15 1117,-36.15 1113.5,-46.15 1120.5,-46.15"/>
</g>
<!-- 9cc01caa&#45;a97f&#45;457e&#45;8f03&#45;ee667184b08f&#45;&gt;end -->
<g id="edge9" class="edge">
<title>9cc01caa&#45;a97f&#45;457e&#45;8f03&#45;ee667184b08f&#45;&gt;end</title>
<path fill="none" stroke="black" d="M2075.33,-99.87C2095.74,-99.87 2112.08,-99.87 2122.08,-99.87"/>
<polygon fill="black" stroke="black" points="2122.4,-103.37 2132.4,-99.87 2122.4,-96.37 2122.4,-103.37"/>
<text text-anchor="middle" x="2103.86" y="-106.67" font-family="Helvetica,sans-Serif" font-size="14.00">Finish</text>
</g>
<!-- 07c3f675&#45;efce&#45;4c5e&#45;a8d1&#45;a4cea22acd6f -->
<g id="node10" class="node">
<title>07c3f675&#45;efce&#45;4c5e&#45;a8d1&#45;a4cea22acd6f</title>
<polygon fill="white" stroke="black" points="2074,-36 1416,-36 1416,0 2074,0 2074,-36"/>
<text text-anchor="middle" x="1745" y="-14.3" font-family="Helvetica,sans-Serif" font-size="14.00">▶ Run GitHub Actions for `NET&#45;Hack&#45;2023/bin/Debug/net6.0/appsettings.Development.json`</text>
</g>
<!-- 9cc01caa&#45;a97f&#45;457e&#45;8f03&#45;ee667184b08f&#45;&gt;07c3f675&#45;efce&#45;4c5e&#45;a8d1&#45;a4cea22acd6f -->
<g id="edge7" class="edge">
<title>9cc01caa&#45;a97f&#45;457e&#45;8f03&#45;ee667184b08f&#45;&gt;07c3f675&#45;efce&#45;4c5e&#45;a8d1&#45;a4cea22acd6f</title>
<path fill="none" stroke="black" stroke-dasharray="5,2" d="M1745,-72.72C1745,-64.27 1745,-54.89 1745,-46.36"/>
<polygon fill="black" stroke="black" points="1748.5,-46.15 1745,-36.15 1741.5,-46.15 1748.5,-46.15"/>
</g>
</g>
</svg>
