<?xml version="1.0" encoding="UTF-8" standalone="no"?>
<!DOCTYPE svg PUBLIC "-//W3C//DTD SVG 1.1//EN"
 "http://www.w3.org/Graphics/SVG/1.1/DTD/svg11.dtd">
<!-- Generated by graphviz version 2.43.0 (0)
 -->
<!-- Title: %3 Pages: 1 -->
<svg width="684pt" height="238pt"
 viewBox="0.00 0.00 684.00 237.74" xmlns="http://www.w3.org/2000/svg" xmlns:xlink="http://www.w3.org/1999/xlink">
<g id="graph0" class="graph" transform="scale(1 1) rotate(0) translate(36 201.74)">
<title>%3</title>
<polygon fill="dimgray" stroke="transparent" points="-36,36 -36,-201.74 648,-201.74 648,36 -36,36"/>
<text text-anchor="middle" x="306" y="-150.54" font-family="Helvetica,sans-Serif" font-size="14.00">Sweep&#39;s Plan &amp; Progress</text>
<!-- start -->
<g id="node1" class="node">
<title>start</title>
</g>
<!-- 23476e04&#45;9c18&#45;44b0&#45;8de8&#45;08058c3f7b17 -->
<g id="node3" class="node">
<title>23476e04&#45;9c18&#45;44b0&#45;8de8&#45;08058c3f7b17</title>
<ellipse fill="#ee0000" stroke="black" cx="215.5" cy="-99.87" rx="73.58" ry="26.74"/>
<text text-anchor="middle" x="215.5" y="-103.67" font-family="Helvetica,sans-Serif" font-size="14.00">✗ Modify</text>
<text text-anchor="middle" x="215.5" y="-88.67" font-family="Helvetica,sans-Serif" font-size="14.00">README.md</text>
</g>
<!-- start&#45;&gt;23476e04&#45;9c18&#45;44b0&#45;8de8&#45;08058c3f7b17 -->
<g id="edge4" class="edge">
<title>start&#45;&gt;23476e04&#45;9c18&#45;44b0&#45;8de8&#45;08058c3f7b17</title>
<path fill="none" stroke="black" d="M90.3,-99.87C94.14,-99.87 111.24,-99.87 131.62,-99.87"/>
<polygon fill="black" stroke="black" points="131.85,-103.37 141.85,-99.87 131.85,-96.37 131.85,-103.37"/>
<text text-anchor="middle" x="115.98" y="-106.67" font-family="Helvetica,sans-Serif" font-size="14.00">Start</text>
</g>
<!-- end -->
<g id="node2" class="node">
<title>end</title>
</g>
<!-- 49594c20&#45;e34a&#45;496f&#45;9a9b&#45;2b5488a8c5a7 -->
<g id="node4" class="node">
<title>49594c20&#45;e34a&#45;496f&#45;9a9b&#45;2b5488a8c5a7</title>
<ellipse fill="white" stroke="black" cx="431.5" cy="-99.87" rx="73.58" ry="26.74"/>
<text text-anchor="middle" x="431.5" y="-103.67" font-family="Helvetica,sans-Serif" font-size="14.00">▶ Modify</text>
<text text-anchor="middle" x="431.5" y="-88.67" font-family="Helvetica,sans-Serif" font-size="14.00">README.md</text>
</g>
<!-- 23476e04&#45;9c18&#45;44b0&#45;8de8&#45;08058c3f7b17&#45;&gt;49594c20&#45;e34a&#45;496f&#45;9a9b&#45;2b5488a8c5a7 -->
<g id="edge2" class="edge">
<title>23476e04&#45;9c18&#45;44b0&#45;8de8&#45;08058c3f7b17&#45;&gt;49594c20&#45;e34a&#45;496f&#45;9a9b&#45;2b5488a8c5a7</title>
<path fill="none" stroke="black" d="M289.33,-99.87C308.8,-99.87 328.27,-99.87 347.73,-99.87"/>
<polygon fill="black" stroke="black" points="347.91,-103.37 357.91,-99.87 347.91,-96.37 347.91,-103.37"/>
</g>
<!-- e0000507&#45;19cb&#45;494f&#45;9f75&#45;b86818a06af0 -->
<g id="node5" class="node">
<title>e0000507&#45;19cb&#45;494f&#45;9f75&#45;b86818a06af0</title>
<polygon fill="yellow" stroke="black" points="299,-36 0,-36 0,0 299,0 299,-36"/>
<text text-anchor="middle" x="149.5" y="-14.3" font-family="Helvetica,sans-Serif" font-size="14.00">⋯ Run GitHub Actions for `README.md`</text>
</g>
<!-- 23476e04&#45;9c18&#45;44b0&#45;8de8&#45;08058c3f7b17&#45;&gt;e0000507&#45;19cb&#45;494f&#45;9f75&#45;b86818a06af0 -->
<g id="edge1" class="edge">
<title>23476e04&#45;9c18&#45;44b0&#45;8de8&#45;08058c3f7b17&#45;&gt;e0000507&#45;19cb&#45;494f&#45;9f75&#45;b86818a06af0</title>
<path fill="none" stroke="black" stroke-dasharray="5,2" d="M194.98,-74.04C187.14,-64.54 178.19,-53.72 170.32,-44.19"/>
<polygon fill="black" stroke="black" points="172.8,-41.7 163.73,-36.22 167.4,-46.16 172.8,-41.7"/>
</g>
<!-- 49594c20&#45;e34a&#45;496f&#45;9a9b&#45;2b5488a8c5a7&#45;&gt;end -->
<g id="edge5" class="edge">
<title>49594c20&#45;e34a&#45;496f&#45;9a9b&#45;2b5488a8c5a7&#45;&gt;end</title>
<path fill="none" stroke="black" d="M505.22,-99.87C523.84,-99.87 541.64,-99.87 552.56,-99.87"/>
<polygon fill="black" stroke="black" points="552.78,-103.37 562.78,-99.87 552.78,-96.37 552.78,-103.37"/>
<text text-anchor="middle" x="534.02" y="-106.67" font-family="Helvetica,sans-Serif" font-size="14.00">Finish</text>
</g>
<!-- fd885f4e&#45;a433&#45;4352&#45;b8fb&#45;c5e838116f42 -->
<g id="node6" class="node">
<title>fd885f4e&#45;a433&#45;4352&#45;b8fb&#45;c5e838116f42</title>
<polygon fill="white" stroke="black" points="612,-36 317,-36 317,0 612,0 612,-36"/>
<text text-anchor="middle" x="464.5" y="-14.3" font-family="Helvetica,sans-Serif" font-size="14.00">▶ Run GitHub Actions for `README.md`</text>
</g>
<!-- 49594c20&#45;e34a&#45;496f&#45;9a9b&#45;2b5488a8c5a7&#45;&gt;fd885f4e&#45;a433&#45;4352&#45;b8fb&#45;c5e838116f42 -->
<g id="edge3" class="edge">
<title>49594c20&#45;e34a&#45;496f&#45;9a9b&#45;2b5488a8c5a7&#45;&gt;fd885f4e&#45;a433&#45;4352&#45;b8fb&#45;c5e838116f42</title>
<path fill="none" stroke="black" stroke-dasharray="5,2" d="M442.12,-73.16C445.74,-64.41 449.78,-54.62 453.43,-45.79"/>
<polygon fill="black" stroke="black" points="456.75,-46.92 457.34,-36.34 450.28,-44.24 456.75,-46.92"/>
</g>
</g>
</svg>
