<?xml version="1.0" encoding="UTF-8" standalone="no"?>
<!DOCTYPE svg PUBLIC "-//W3C//DTD SVG 1.1//EN"
 "http://www.w3.org/Graphics/SVG/1.1/DTD/svg11.dtd">
<!-- Generated by graphviz version 2.43.0 (0)
 -->
<!-- Title: %3 Pages: 1 -->
<svg width="682pt" height="238pt"
 viewBox="0.00 0.00 681.50 237.74" xmlns="http://www.w3.org/2000/svg" xmlns:xlink="http://www.w3.org/1999/xlink">
<g id="graph0" class="graph" transform="scale(1 1) rotate(0) translate(36 201.74)">
<title>%3</title>
<polygon fill="dimgray" stroke="transparent" points="-36,36 -36,-201.74 645.5,-201.74 645.5,36 -36,36"/>
<text text-anchor="middle" x="304.75" y="-150.54" font-family="Helvetica,sans-Serif" font-size="14.00">Sweep&#39;s Plan &amp; Progress</text>
<!-- start -->
<g id="node1" class="node">
<title>start</title>
</g>
<!-- 33de47a6&#45;b490&#45;45fc&#45;b9c8&#45;cf86c9db341a -->
<g id="node3" class="node">
<title>33de47a6&#45;b490&#45;45fc&#45;b9c8&#45;cf86c9db341a</title>
<ellipse fill="#ee0000" stroke="black" cx="213" cy="-99.87" rx="73.58" ry="26.74"/>
<text text-anchor="middle" x="213" y="-103.67" font-family="Helvetica,sans-Serif" font-size="14.00">✗ Modify</text>
<text text-anchor="middle" x="213" y="-88.67" font-family="Helvetica,sans-Serif" font-size="14.00">README.md</text>
</g>
<!-- start&#45;&gt;33de47a6&#45;b490&#45;45fc&#45;b9c8&#45;cf86c9db341a -->
<g id="edge4" class="edge">
<title>start&#45;&gt;33de47a6&#45;b490&#45;45fc&#45;b9c8&#45;cf86c9db341a</title>
<path fill="none" stroke="black" d="M87.8,-99.87C91.64,-99.87 108.74,-99.87 129.12,-99.87"/>
<polygon fill="black" stroke="black" points="129.35,-103.37 139.35,-99.87 129.35,-96.37 129.35,-103.37"/>
<text text-anchor="middle" x="113.48" y="-106.67" font-family="Helvetica,sans-Serif" font-size="14.00">Start</text>
</g>
<!-- end -->
<g id="node2" class="node">
<title>end</title>
</g>
<!-- a940c2d9&#45;49a9&#45;4693&#45;81d8&#45;95ea5ef8f3a8 -->
<g id="node4" class="node">
<title>a940c2d9&#45;49a9&#45;4693&#45;81d8&#45;95ea5ef8f3a8</title>
<ellipse fill="white" stroke="black" cx="429" cy="-99.87" rx="73.58" ry="26.74"/>
<text text-anchor="middle" x="429" y="-103.67" font-family="Helvetica,sans-Serif" font-size="14.00">▶ Modify</text>
<text text-anchor="middle" x="429" y="-88.67" font-family="Helvetica,sans-Serif" font-size="14.00">README.md</text>
</g>
<!-- 33de47a6&#45;b490&#45;45fc&#45;b9c8&#45;cf86c9db341a&#45;&gt;a940c2d9&#45;49a9&#45;4693&#45;81d8&#45;95ea5ef8f3a8 -->
<g id="edge2" class="edge">
<title>33de47a6&#45;b490&#45;45fc&#45;b9c8&#45;cf86c9db341a&#45;&gt;a940c2d9&#45;49a9&#45;4693&#45;81d8&#45;95ea5ef8f3a8</title>
<path fill="none" stroke="black" d="M286.83,-99.87C306.3,-99.87 325.77,-99.87 345.23,-99.87"/>
<polygon fill="black" stroke="black" points="345.41,-103.37 355.41,-99.87 345.41,-96.37 345.41,-103.37"/>
</g>
<!-- 87db2e0d&#45;4154&#45;4f8e&#45;ab0c&#45;ebc615a597a4 -->
<g id="node5" class="node">
<title>87db2e0d&#45;4154&#45;4f8e&#45;ab0c&#45;ebc615a597a4</title>
<polygon fill="#ee0000" stroke="black" points="296,-36 0,-36 0,0 296,0 296,-36"/>
<text text-anchor="middle" x="148" y="-14.3" font-family="Helvetica,sans-Serif" font-size="14.00">✗ Run GitHub Actions for `README.md`</text>
</g>
<!-- 33de47a6&#45;b490&#45;45fc&#45;b9c8&#45;cf86c9db341a&#45;&gt;87db2e0d&#45;4154&#45;4f8e&#45;ab0c&#45;ebc615a597a4 -->
<g id="edge1" class="edge">
<title>33de47a6&#45;b490&#45;45fc&#45;b9c8&#45;cf86c9db341a&#45;&gt;87db2e0d&#45;4154&#45;4f8e&#45;ab0c&#45;ebc615a597a4</title>
<path fill="none" stroke="black" stroke-dasharray="5,2" d="M192.43,-73.6C184.72,-64.13 175.97,-53.37 168.29,-43.93"/>
<polygon fill="black" stroke="black" points="170.89,-41.58 161.86,-36.04 165.46,-46 170.89,-41.58"/>
</g>
<!-- a940c2d9&#45;49a9&#45;4693&#45;81d8&#45;95ea5ef8f3a8&#45;&gt;end -->
<g id="edge5" class="edge">
<title>a940c2d9&#45;49a9&#45;4693&#45;81d8&#45;95ea5ef8f3a8&#45;&gt;end</title>
<path fill="none" stroke="black" d="M502.72,-99.87C521.34,-99.87 539.14,-99.87 550.06,-99.87"/>
<polygon fill="black" stroke="black" points="550.28,-103.37 560.28,-99.87 550.28,-96.37 550.28,-103.37"/>
<text text-anchor="middle" x="531.52" y="-106.67" font-family="Helvetica,sans-Serif" font-size="14.00">Finish</text>
</g>
<!-- 6bdf895b&#45;2b95&#45;4576&#45;babb&#45;8ad2be978f44 -->
<g id="node6" class="node">
<title>6bdf895b&#45;2b95&#45;4576&#45;babb&#45;8ad2be978f44</title>
<polygon fill="white" stroke="black" points="609.5,-36 314.5,-36 314.5,0 609.5,0 609.5,-36"/>
<text text-anchor="middle" x="462" y="-14.3" font-family="Helvetica,sans-Serif" font-size="14.00">▶ Run GitHub Actions for `README.md`</text>
</g>
<!-- a940c2d9&#45;49a9&#45;4693&#45;81d8&#45;95ea5ef8f3a8&#45;&gt;6bdf895b&#45;2b95&#45;4576&#45;babb&#45;8ad2be978f44 -->
<g id="edge3" class="edge">
<title>a940c2d9&#45;49a9&#45;4693&#45;81d8&#45;95ea5ef8f3a8&#45;&gt;6bdf895b&#45;2b95&#45;4576&#45;babb&#45;8ad2be978f44</title>
<path fill="none" stroke="black" stroke-dasharray="5,2" d="M439.62,-73.16C443.24,-64.41 447.28,-54.62 450.93,-45.79"/>
<polygon fill="black" stroke="black" points="454.25,-46.92 454.84,-36.34 447.78,-44.24 454.25,-46.92"/>
</g>
</g>
</svg>
