<?xml version="1.0" encoding="UTF-8" standalone="no"?>
<!DOCTYPE svg PUBLIC "-//W3C//DTD SVG 1.1//EN"
 "http://www.w3.org/Graphics/SVG/1.1/DTD/svg11.dtd">
<!-- Generated by graphviz version 2.43.0 (0)
 -->
<!-- Title: %3 Pages: 1 -->
<svg width="478pt" height="238pt"
 viewBox="0.00 0.00 477.50 237.74" xmlns="http://www.w3.org/2000/svg" xmlns:xlink="http://www.w3.org/1999/xlink">
<g id="graph0" class="graph" transform="scale(1 1) rotate(0) translate(36 201.74)">
<title>%3</title>
<polygon fill="dimgray" stroke="transparent" points="-36,36 -36,-201.74 441.5,-201.74 441.5,36 -36,36"/>
<text text-anchor="middle" x="202.75" y="-150.54" font-family="Helvetica,sans-Serif" font-size="14.00">Sweep&#39;s Plan &amp; Progress</text>
<!-- start -->
<g id="node1" class="node">
<title>start</title>
</g>
<!-- 961a309a&#45;400e&#45;403d&#45;8f85&#45;965bbd97bf46 -->
<g id="node3" class="node">
<title>961a309a&#45;400e&#45;403d&#45;8f85&#45;965bbd97bf46</title>
<ellipse fill="#0ee832" stroke="black" cx="201" cy="-99.87" rx="146.24" ry="26.74"/>
<text text-anchor="middle" x="201" y="-103.67" font-family="Helvetica,sans-Serif" font-size="14.00">✓ Modify</text>
<text text-anchor="middle" x="201" y="-88.67" font-family="Helvetica,sans-Serif" font-size="14.00">azure_oai_sdk_README.md</text>
</g>
<!-- start&#45;&gt;961a309a&#45;400e&#45;403d&#45;8f85&#45;965bbd97bf46 -->
<g id="edge2" class="edge">
<title>start&#45;&gt;961a309a&#45;400e&#45;403d&#45;8f85&#45;965bbd97bf46</title>
<path fill="none" stroke="black" d="M3.57,-99.87C6.72,-99.87 22.66,-99.87 44.22,-99.87"/>
<polygon fill="black" stroke="black" points="44.51,-103.37 54.51,-99.87 44.51,-96.37 44.51,-103.37"/>
<text text-anchor="middle" x="29.06" y="-106.67" font-family="Helvetica,sans-Serif" font-size="14.00">Start</text>
</g>
<!-- end -->
<g id="node2" class="node">
<title>end</title>
</g>
<!-- 961a309a&#45;400e&#45;403d&#45;8f85&#45;965bbd97bf46&#45;&gt;end -->
<g id="edge3" class="edge">
<title>961a309a&#45;400e&#45;403d&#45;8f85&#45;965bbd97bf46&#45;&gt;end</title>
<path fill="none" stroke="black" d="M347.63,-99.87C367.15,-99.87 383.95,-99.87 394.24,-99.87"/>
<polygon fill="black" stroke="black" points="394.36,-103.37 404.36,-99.87 394.36,-96.37 394.36,-103.37"/>
<text text-anchor="middle" x="375.94" y="-106.67" font-family="Helvetica,sans-Serif" font-size="14.00">Finish</text>
</g>
<!-- bdd2db6a&#45;e0fb&#45;4798&#45;8f41&#45;421abb479d7d -->
<g id="node4" class="node">
<title>bdd2db6a&#45;e0fb&#45;4798&#45;8f41&#45;421abb479d7d</title>
<polygon fill="yellow" stroke="black" points="402,-36 0,-36 0,0 402,0 402,-36"/>
<text text-anchor="middle" x="201" y="-14.3" font-family="Helvetica,sans-Serif" font-size="14.00">⋯ Run GitHub Actions for `azure_oai_sdk_README.md`</text>
</g>
<!-- 961a309a&#45;400e&#45;403d&#45;8f85&#45;965bbd97bf46&#45;&gt;bdd2db6a&#45;e0fb&#45;4798&#45;8f41&#45;421abb479d7d -->
<g id="edge1" class="edge">
<title>961a309a&#45;400e&#45;403d&#45;8f85&#45;965bbd97bf46&#45;&gt;bdd2db6a&#45;e0fb&#45;4798&#45;8f41&#45;421abb479d7d</title>
<path fill="none" stroke="black" stroke-dasharray="5,2" d="M201,-72.72C201,-64.27 201,-54.89 201,-46.36"/>
<polygon fill="black" stroke="black" points="204.5,-46.15 201,-36.15 197.5,-46.15 204.5,-46.15"/>
</g>
</g>
</svg>
