<?xml version="1.0" encoding="UTF-8" standalone="no"?>
<!DOCTYPE svg PUBLIC "-//W3C//DTD SVG 1.1//EN"
 "http://www.w3.org/Graphics/SVG/1.1/DTD/svg11.dtd">
<!-- Generated by graphviz version 2.43.0 (0)
 -->
<!-- Title: %3 Pages: 1 -->
<svg width="2202pt" height="238pt"
 viewBox="0.00 0.00 2201.50 237.74" xmlns="http://www.w3.org/2000/svg" xmlns:xlink="http://www.w3.org/1999/xlink">
<g id="graph0" class="graph" transform="scale(1 1) rotate(0) translate(36 201.74)">
<title>%3</title>
<polygon fill="dimgray" stroke="transparent" points="-36,36 -36,-201.74 2165.5,-201.74 2165.5,36 -36,36"/>
<text text-anchor="middle" x="1064.75" y="-150.54" font-family="Helvetica,sans-Serif" font-size="14.00">Sweep&#39;s Plan &amp; Progress</text>
<!-- start -->
<g id="node1" class="node">
<title>start</title>
</g>
<!-- de96a816&#45;ef02&#45;4206&#45;91f9&#45;44b2a5c2301b -->
<g id="node3" class="node">
<title>de96a816&#45;ef02&#45;4206&#45;91f9&#45;44b2a5c2301b</title>
<ellipse fill="yellow" stroke="black" cx="243" cy="-99.87" rx="146.24" ry="26.74"/>
<text text-anchor="middle" x="243" y="-103.67" font-family="Helvetica,sans-Serif" font-size="14.00">⋯ Modify</text>
<text text-anchor="middle" x="243" y="-88.67" font-family="Helvetica,sans-Serif" font-size="14.00">azure_oai_sdk_README.md</text>
</g>
<!-- start&#45;&gt;de96a816&#45;ef02&#45;4206&#45;91f9&#45;44b2a5c2301b -->
<g id="edge8" class="edge">
<title>start&#45;&gt;de96a816&#45;ef02&#45;4206&#45;91f9&#45;44b2a5c2301b</title>
<path fill="none" stroke="black" d="M45.57,-99.87C48.72,-99.87 64.66,-99.87 86.22,-99.87"/>
<polygon fill="black" stroke="black" points="86.51,-103.37 96.51,-99.87 86.51,-96.37 86.51,-103.37"/>
<text text-anchor="middle" x="71.06" y="-106.67" font-family="Helvetica,sans-Serif" font-size="14.00">Start</text>
</g>
<!-- end -->
<g id="node2" class="node">
<title>end</title>
</g>
<!-- a2d299ee&#45;a4dd&#45;4f38&#45;992f&#45;752e9fc865e5 -->
<g id="node4" class="node">
<title>a2d299ee&#45;a4dd&#45;4f38&#45;992f&#45;752e9fc865e5</title>
<ellipse fill="white" stroke="black" cx="615" cy="-99.87" rx="146.24" ry="26.74"/>
<text text-anchor="middle" x="615" y="-103.67" font-family="Helvetica,sans-Serif" font-size="14.00">▶ Modify</text>
<text text-anchor="middle" x="615" y="-88.67" font-family="Helvetica,sans-Serif" font-size="14.00">NET&#45;Hack&#45;2023/Program.cs</text>
</g>
<!-- de96a816&#45;ef02&#45;4206&#45;91f9&#45;44b2a5c2301b&#45;&gt;a2d299ee&#45;a4dd&#45;4f38&#45;992f&#45;752e9fc865e5 -->
<g id="edge2" class="edge">
<title>de96a816&#45;ef02&#45;4206&#45;91f9&#45;44b2a5c2301b&#45;&gt;a2d299ee&#45;a4dd&#45;4f38&#45;992f&#45;752e9fc865e5</title>
<path fill="none" stroke="black" d="M389.4,-99.87C412.3,-99.87 435.21,-99.87 458.11,-99.87"/>
<polygon fill="black" stroke="black" points="458.27,-103.37 468.27,-99.87 458.27,-96.37 458.27,-103.37"/>
</g>
<!-- b397e0fe&#45;63da&#45;4f0b&#45;9dd1&#45;efc31aea8964 -->
<g id="node7" class="node">
<title>b397e0fe&#45;63da&#45;4f0b&#45;9dd1&#45;efc31aea8964</title>
<polygon fill="white" stroke="black" points="398,-36 0,-36 0,0 398,0 398,-36"/>
<text text-anchor="middle" x="199" y="-14.3" font-family="Helvetica,sans-Serif" font-size="14.00">▶ Run GitHub Actions for `azure_oai_sdk_README.md`</text>
</g>
<!-- de96a816&#45;ef02&#45;4206&#45;91f9&#45;44b2a5c2301b&#45;&gt;b397e0fe&#45;63da&#45;4f0b&#45;9dd1&#45;efc31aea8964 -->
<g id="edge1" class="edge">
<title>de96a816&#45;ef02&#45;4206&#45;91f9&#45;44b2a5c2301b&#45;&gt;b397e0fe&#45;63da&#45;4f0b&#45;9dd1&#45;efc31aea8964</title>
<path fill="none" stroke="black" stroke-dasharray="5,2" d="M228.59,-72.72C223.68,-63.8 218.2,-53.84 213.29,-44.95"/>
<polygon fill="black" stroke="black" points="216.34,-43.22 208.45,-36.15 210.21,-46.59 216.34,-43.22"/>
</g>
<!-- 3afc8869&#45;c352&#45;4f8b&#45;abcb&#45;caa4d8929c73 -->
<g id="node5" class="node">
<title>3afc8869&#45;c352&#45;4f8b&#45;abcb&#45;caa4d8929c73</title>
<ellipse fill="white" stroke="black" cx="1113" cy="-99.87" rx="261.76" ry="26.74"/>
<text text-anchor="middle" x="1113" y="-103.67" font-family="Helvetica,sans-Serif" font-size="14.00">▶ Modify</text>
<text text-anchor="middle" x="1113" y="-88.67" font-family="Helvetica,sans-Serif" font-size="14.00">NET&#45;Hack&#45;2023/bin/Debug/net6.0/appsettings.json</text>
</g>
<!-- a2d299ee&#45;a4dd&#45;4f38&#45;992f&#45;752e9fc865e5&#45;&gt;3afc8869&#45;c352&#45;4f8b&#45;abcb&#45;caa4d8929c73 -->
<g id="edge4" class="edge">
<title>a2d299ee&#45;a4dd&#45;4f38&#45;992f&#45;752e9fc865e5&#45;&gt;3afc8869&#45;c352&#45;4f8b&#45;abcb&#45;caa4d8929c73</title>
<path fill="none" stroke="black" d="M761.38,-99.87C787.98,-99.87 814.57,-99.87 841.16,-99.87"/>
<polygon fill="black" stroke="black" points="841.35,-103.37 851.35,-99.87 841.35,-96.37 841.35,-103.37"/>
</g>
<!-- 82c763b1&#45;7a53&#45;4f5d&#45;b139&#45;63498b7c631e -->
<g id="node8" class="node">
<title>82c763b1&#45;7a53&#45;4f5d&#45;b139&#45;63498b7c631e</title>
<polygon fill="white" stroke="black" points="814,-36 416,-36 416,0 814,0 814,-36"/>
<text text-anchor="middle" x="615" y="-14.3" font-family="Helvetica,sans-Serif" font-size="14.00">▶ Run GitHub Actions for `NET&#45;Hack&#45;2023/Program.cs`</text>
</g>
<!-- a2d299ee&#45;a4dd&#45;4f38&#45;992f&#45;752e9fc865e5&#45;&gt;82c763b1&#45;7a53&#45;4f5d&#45;b139&#45;63498b7c631e -->
<g id="edge3" class="edge">
<title>a2d299ee&#45;a4dd&#45;4f38&#45;992f&#45;752e9fc865e5&#45;&gt;82c763b1&#45;7a53&#45;4f5d&#45;b139&#45;63498b7c631e</title>
<path fill="none" stroke="black" stroke-dasharray="5,2" d="M615,-72.72C615,-64.27 615,-54.89 615,-46.36"/>
<polygon fill="black" stroke="black" points="618.5,-46.15 615,-36.15 611.5,-46.15 618.5,-46.15"/>
</g>
<!-- 9cc01caa&#45;a97f&#45;457e&#45;8f03&#45;ee667184b08f -->
<g id="node6" class="node">
<title>9cc01caa&#45;a97f&#45;457e&#45;8f03&#45;ee667184b08f</title>
<ellipse fill="white" stroke="black" cx="1741" cy="-99.87" rx="330.44" ry="26.74"/>
<text text-anchor="middle" x="1741" y="-103.67" font-family="Helvetica,sans-Serif" font-size="14.00">▶ Modify</text>
<text text-anchor="middle" x="1741" y="-88.67" font-family="Helvetica,sans-Serif" font-size="14.00">NET&#45;Hack&#45;2023/bin/Debug/net6.0/appsettings.Development.json</text>
</g>
<!-- 3afc8869&#45;c352&#45;4f8b&#45;abcb&#45;caa4d8929c73&#45;&gt;9cc01caa&#45;a97f&#45;457e&#45;8f03&#45;ee667184b08f -->
<g id="edge6" class="edge">
<title>3afc8869&#45;c352&#45;4f8b&#45;abcb&#45;caa4d8929c73&#45;&gt;9cc01caa&#45;a97f&#45;457e&#45;8f03&#45;ee667184b08f</title>
<path fill="none" stroke="black" d="M1374.87,-99.87C1383.44,-99.87 1392,-99.87 1400.57,-99.87"/>
<polygon fill="black" stroke="black" points="1400.63,-103.37 1410.63,-99.87 1400.63,-96.37 1400.63,-103.37"/>
</g>
<!-- 059b2dd5&#45;7085&#45;4b47&#45;81a9&#45;3b0b2f392785 -->
<g id="node9" class="node">
<title>059b2dd5&#45;7085&#45;4b47&#45;81a9&#45;3b0b2f392785</title>
<polygon fill="white" stroke="black" points="1393.5,-36 832.5,-36 832.5,0 1393.5,0 1393.5,-36"/>
<text text-anchor="middle" x="1113" y="-14.3" font-family="Helvetica,sans-Serif" font-size="14.00">▶ Run GitHub Actions for `NET&#45;Hack&#45;2023/bin/Debug/net6.0/appsettings.json`</text>
</g>
<!-- 3afc8869&#45;c352&#45;4f8b&#45;abcb&#45;caa4d8929c73&#45;&gt;059b2dd5&#45;7085&#45;4b47&#45;81a9&#45;3b0b2f392785 -->
<g id="edge5" class="edge">
<title>3afc8869&#45;c352&#45;4f8b&#45;abcb&#45;caa4d8929c73&#45;&gt;059b2dd5&#45;7085&#45;4b47&#45;81a9&#45;3b0b2f392785</title>
<path fill="none" stroke="black" stroke-dasharray="5,2" d="M1113,-72.72C1113,-64.27 1113,-54.89 1113,-46.36"/>
<polygon fill="black" stroke="black" points="1116.5,-46.15 1113,-36.15 1109.5,-46.15 1116.5,-46.15"/>
</g>
<!-- 9cc01caa&#45;a97f&#45;457e&#45;8f03&#45;ee667184b08f&#45;&gt;end -->
<g id="edge9" class="edge">
<title>9cc01caa&#45;a97f&#45;457e&#45;8f03&#45;ee667184b08f&#45;&gt;end</title>
<path fill="none" stroke="black" d="M2071.33,-99.87C2091.74,-99.87 2108.08,-99.87 2118.08,-99.87"/>
<polygon fill="black" stroke="black" points="2118.4,-103.37 2128.4,-99.87 2118.4,-96.37 2118.4,-103.37"/>
<text text-anchor="middle" x="2099.86" y="-106.67" font-family="Helvetica,sans-Serif" font-size="14.00">Finish</text>
</g>
<!-- 07c3f675&#45;efce&#45;4c5e&#45;a8d1&#45;a4cea22acd6f -->
<g id="node10" class="node">
<title>07c3f675&#45;efce&#45;4c5e&#45;a8d1&#45;a4cea22acd6f</title>
<polygon fill="white" stroke="black" points="2070,-36 1412,-36 1412,0 2070,0 2070,-36"/>
<text text-anchor="middle" x="1741" y="-14.3" font-family="Helvetica,sans-Serif" font-size="14.00">▶ Run GitHub Actions for `NET&#45;Hack&#45;2023/bin/Debug/net6.0/appsettings.Development.json`</text>
</g>
<!-- 9cc01caa&#45;a97f&#45;457e&#45;8f03&#45;ee667184b08f&#45;&gt;07c3f675&#45;efce&#45;4c5e&#45;a8d1&#45;a4cea22acd6f -->
<g id="edge7" class="edge">
<title>9cc01caa&#45;a97f&#45;457e&#45;8f03&#45;ee667184b08f&#45;&gt;07c3f675&#45;efce&#45;4c5e&#45;a8d1&#45;a4cea22acd6f</title>
<path fill="none" stroke="black" stroke-dasharray="5,2" d="M1741,-72.72C1741,-64.27 1741,-54.89 1741,-46.36"/>
<polygon fill="black" stroke="black" points="1744.5,-46.15 1741,-36.15 1737.5,-46.15 1744.5,-46.15"/>
</g>
</g>
</svg>
