<?xml version="1.0" encoding="UTF-8" standalone="no"?>
<!DOCTYPE svg PUBLIC "-//W3C//DTD SVG 1.1//EN"
 "http://www.w3.org/Graphics/SVG/1.1/DTD/svg11.dtd">
<!-- Generated by graphviz version 2.43.0 (0)
 -->
<!-- Title: %3 Pages: 1 -->
<svg width="462pt" height="165pt"
 viewBox="0.00 0.00 462.00 164.74" xmlns="http://www.w3.org/2000/svg" xmlns:xlink="http://www.w3.org/1999/xlink">
<g id="graph0" class="graph" transform="scale(1 1) rotate(0) translate(36 128.74)">
<title>%3</title>
<polygon fill="dimgray" stroke="transparent" points="-36,36 -36,-128.74 426,-128.74 426,36 -36,36"/>
<text text-anchor="middle" x="195" y="-77.54" font-family="Helvetica,sans-Serif" font-size="14.00">Sweep&#39;s Plan &amp; Progress</text>
<!-- start -->
<g id="node1" class="node">
<title>start</title>
</g>
<!-- 6dbe3775&#45;3ed0&#45;42ed&#45;9ba0&#45;97aac9575945 -->
<g id="node3" class="node">
<title>6dbe3775&#45;3ed0&#45;42ed&#45;9ba0&#45;97aac9575945</title>
<ellipse fill="#0ee832" stroke="black" cx="113.5" cy="-26.87" rx="60.62" ry="26.74"/>
<text text-anchor="middle" x="113.5" y="-30.67" font-family="Helvetica,sans-Serif" font-size="14.00">✓ Create</text>
<text text-anchor="middle" x="113.5" y="-15.67" font-family="Helvetica,sans-Serif" font-size="14.00">Dockerfile</text>
</g>
<!-- start&#45;&gt;6dbe3775&#45;3ed0&#45;42ed&#45;9ba0&#45;97aac9575945 -->
<g id="edge2" class="edge">
<title>start&#45;&gt;6dbe3775&#45;3ed0&#45;42ed&#45;9ba0&#45;97aac9575945</title>
<path fill="none" stroke="black" d="M1.22,-26.87C4.92,-26.87 22.36,-26.87 42.44,-26.87"/>
<polygon fill="black" stroke="black" points="42.46,-30.37 52.46,-26.87 42.46,-23.37 42.46,-30.37"/>
<text text-anchor="middle" x="26.84" y="-33.67" font-family="Helvetica,sans-Serif" font-size="14.00">Start</text>
</g>
<!-- end -->
<g id="node2" class="node">
<title>end</title>
</g>
<!-- 6f94a06c&#45;d7db&#45;4f62&#45;922b&#45;ebe81a7a9995 -->
<g id="node4" class="node">
<title>6f94a06c&#45;d7db&#45;4f62&#45;922b&#45;ebe81a7a9995</title>
<ellipse fill="yellow" stroke="black" cx="270.5" cy="-26.87" rx="60.62" ry="26.74"/>
<text text-anchor="middle" x="270.5" y="-30.67" font-family="Helvetica,sans-Serif" font-size="14.00">⋯ Modify</text>
<text text-anchor="middle" x="270.5" y="-15.67" font-family="Helvetica,sans-Serif" font-size="14.00">Dockerfile</text>
</g>
<!-- 6dbe3775&#45;3ed0&#45;42ed&#45;9ba0&#45;97aac9575945&#45;&gt;6f94a06c&#45;d7db&#45;4f62&#45;922b&#45;ebe81a7a9995 -->
<g id="edge1" class="edge">
<title>6dbe3775&#45;3ed0&#45;42ed&#45;9ba0&#45;97aac9575945&#45;&gt;6f94a06c&#45;d7db&#45;4f62&#45;922b&#45;ebe81a7a9995</title>
<path fill="none" stroke="black" d="M174.52,-26.87C182.78,-26.87 191.05,-26.87 199.31,-26.87"/>
<polygon fill="black" stroke="black" points="199.39,-30.37 209.39,-26.87 199.39,-23.37 199.39,-30.37"/>
</g>
<!-- 6f94a06c&#45;d7db&#45;4f62&#45;922b&#45;ebe81a7a9995&#45;&gt;end -->
<g id="edge3" class="edge">
<title>6f94a06c&#45;d7db&#45;4f62&#45;922b&#45;ebe81a7a9995&#45;&gt;end</title>
<path fill="none" stroke="black" d="M331.39,-26.87C349.64,-26.87 367.7,-26.87 378.73,-26.87"/>
<polygon fill="black" stroke="black" points="378.76,-30.37 388.76,-26.87 378.76,-23.37 378.76,-30.37"/>
<text text-anchor="middle" x="360.16" y="-33.67" font-family="Helvetica,sans-Serif" font-size="14.00">Finish</text>
</g>
</g>
</svg>
