<?xml version="1.0" encoding="UTF-8" standalone="no"?>
<!DOCTYPE svg PUBLIC "-//W3C//DTD SVG 1.1//EN"
 "http://www.w3.org/Graphics/SVG/1.1/DTD/svg11.dtd">
<!-- Generated by graphviz version 2.43.0 (0)
 -->
<!-- Title: %3 Pages: 1 -->
<svg width="961pt" height="165pt"
 viewBox="0.00 0.00 961.00 164.74" xmlns="http://www.w3.org/2000/svg" xmlns:xlink="http://www.w3.org/1999/xlink">
<g id="graph0" class="graph" transform="scale(1 1) rotate(0) translate(36 128.74)">
<title>%3</title>
<polygon fill="dimgray" stroke="transparent" points="-36,36 -36,-128.74 925,-128.74 925,36 -36,36"/>
<text text-anchor="middle" x="444.5" y="-77.54" font-family="Helvetica,sans-Serif" font-size="14.00">Sweep&#39;s Plan &amp; Progress</text>
<!-- start -->
<g id="node1" class="node">
<title>start</title>
</g>
<!-- 0f054853&#45;ea59&#45;4084&#45;b88b&#45;f3b073b4e6b6 -->
<g id="node3" class="node">
<title>0f054853&#45;ea59&#45;4084&#45;b88b&#45;f3b073b4e6b6</title>
<ellipse fill="#0ee832" stroke="black" cx="246.5" cy="-26.87" rx="194.41" ry="26.74"/>
<text text-anchor="middle" x="246.5" y="-30.67" font-family="Helvetica,sans-Serif" font-size="14.00">✓ Create</text>
<text text-anchor="middle" x="246.5" y="-15.67" font-family="Helvetica,sans-Serif" font-size="14.00">NET&#45;Hack&#45;2023/Models/ChatModel.cs</text>
</g>
<!-- start&#45;&gt;0f054853&#45;ea59&#45;4084&#45;b88b&#45;f3b073b4e6b6 -->
<g id="edge2" class="edge">
<title>start&#45;&gt;0f054853&#45;ea59&#45;4084&#45;b88b&#45;f3b073b4e6b6</title>
<path fill="none" stroke="black" d="M1.21,-26.87C4.62,-26.87 20.13,-26.87 41.84,-26.87"/>
<polygon fill="black" stroke="black" points="41.86,-30.37 51.86,-26.87 41.86,-23.37 41.86,-30.37"/>
<text text-anchor="middle" x="26.52" y="-33.67" font-family="Helvetica,sans-Serif" font-size="14.00">Start</text>
</g>
<!-- end -->
<g id="node2" class="node">
<title>end</title>
</g>
<!-- 83737d6c&#45;f505&#45;49d0&#45;b434&#45;63d0bdb904ce -->
<g id="node4" class="node">
<title>83737d6c&#45;f505&#45;49d0&#45;b434&#45;63d0bdb904ce</title>
<ellipse fill="yellow" stroke="black" cx="653.5" cy="-26.87" rx="176.55" ry="26.74"/>
<text text-anchor="middle" x="653.5" y="-30.67" font-family="Helvetica,sans-Serif" font-size="14.00">⋯ Modify</text>
<text text-anchor="middle" x="653.5" y="-15.67" font-family="Helvetica,sans-Serif" font-size="14.00">NET&#45;Hack&#45;2023/Hubs/ChatHub.cs</text>
</g>
<!-- 0f054853&#45;ea59&#45;4084&#45;b88b&#45;f3b073b4e6b6&#45;&gt;83737d6c&#45;f505&#45;49d0&#45;b434&#45;63d0bdb904ce -->
<g id="edge1" class="edge">
<title>0f054853&#45;ea59&#45;4084&#45;b88b&#45;f3b073b4e6b6&#45;&gt;83737d6c&#45;f505&#45;49d0&#45;b434&#45;63d0bdb904ce</title>
<path fill="none" stroke="black" d="M441.26,-26.87C449.61,-26.87 457.96,-26.87 466.31,-26.87"/>
<polygon fill="black" stroke="black" points="466.49,-30.37 476.49,-26.87 466.49,-23.37 466.49,-30.37"/>
</g>
<!-- 83737d6c&#45;f505&#45;49d0&#45;b434&#45;63d0bdb904ce&#45;&gt;end -->
<g id="edge3" class="edge">
<title>83737d6c&#45;f505&#45;49d0&#45;b434&#45;63d0bdb904ce&#45;&gt;end</title>
<path fill="none" stroke="black" d="M830.41,-26.87C850.5,-26.87 867.45,-26.87 877.76,-26.87"/>
<polygon fill="black" stroke="black" points="877.86,-30.37 887.86,-26.87 877.86,-23.37 877.86,-30.37"/>
<text text-anchor="middle" x="859.14" y="-33.67" font-family="Helvetica,sans-Serif" font-size="14.00">Finish</text>
</g>
</g>
</svg>
